<?xml version="1.0" encoding="UTF-8"?>
<svg version="1.1" xmlns="http://www.w3.org/2000/svg" width="500" height="500">
<path d="M0 0 C6.3273951 4.1030103 12.11421833 9.95915913 14.14453125 17.390625 C14.43822547 21.08627725 14.38917689 24.69375761 14.14453125 28.390625 C15.3975 28.49246094 16.65046875 28.59429687 17.94140625 28.69921875 C38.39291755 30.99781511 56.83239342 39.58626045 70.14453125 55.390625 C87.10183939 77.77082863 90.96432633 103.03452665 93.14453125 130.265625 C94.91335424 151.98778934 98.86873104 173.28628335 116.26953125 188.140625 C120.09721493 191.13620353 124.04822532 193.93307233 128.02148438 196.73071289 C138.79015089 204.34177234 145.84592908 211.05212693 148.58203125 224.390625 C149.91184905 234.48691156 147.29238253 242.3298157 141.14453125 250.390625 C130.88408443 261.78890347 117.030022 265.48260462 102.19042969 266.72045898 C98.84784411 266.88073972 95.50709844 267.01491645 92.16268921 267.12591553 C70.86294728 267.51305762 70.86294728 267.51305762 51.14453125 274.390625 C48.88152608 277.37367727 48.29247169 279.43077324 47.69140625 283.10546875 C45.59923376 295.67344776 35.50530104 306.51873224 25.51953125 313.703125 C10.35589538 323.29446446 -7.62690602 325.38032675 -25.078125 322.078125 C-37.66380301 318.9626829 -49.48462231 310.6633205 -56.25 299.6015625 C-65.85546875 283.13778906 -65.85546875 283.13778906 -65.85546875 276.390625 C-66.83902344 276.24367188 -67.82257813 276.09671875 -68.8359375 275.9453125 C-76.10601234 274.79032878 -83.07784361 273.39942096 -90.09057617 271.13452148 C-102.08403201 267.28883809 -113.66590846 266.47819206 -126.1953125 265.796875 C-140.86921499 264.97881772 -155.94600588 262.15372622 -166.48046875 251.015625 C-167.65356636 249.51023365 -168.78318619 247.96941289 -169.85546875 246.390625 C-170.30664062 245.73835937 -170.7578125 245.08609375 -171.22265625 244.4140625 C-175.53170278 236.71721388 -175.16551619 225.97964394 -173.1953125 217.57421875 C-169.81603593 209.16259959 -163.14189392 203.40129118 -156.16796875 197.953125 C-155.32987671 197.29679077 -155.32987671 197.29679077 -154.47485352 196.62719727 C-151.69188446 194.52403745 -149.36138818 192.85978697 -145.85546875 192.390625 C-145.85546875 191.730625 -145.85546875 191.070625 -145.85546875 190.390625 C-144.70626159 189.36678589 -143.50887827 188.39678153 -142.29296875 187.453125 C-129.66039858 176.67631293 -124.73559311 159.57452027 -123.39794922 143.54663086 C-122.9451341 137.20312048 -122.6046176 130.85283204 -122.27416992 124.50195312 C-120.62808457 93.73134936 -114.41489245 67.47489625 -91.04296875 45.703125 C-79.24098866 35.95564821 -61.45857495 27.81247184 -45.85546875 28.390625 C-45.901875 27.77316406 -45.94828125 27.15570313 -45.99609375 26.51953125 C-46.34602073 18.30874452 -44.16254068 13.06752088 -39.85546875 6.203125 C-30.10304268 -4.28367051 -12.64347498 -6.11711566 0 0 Z M-29.91796875 18.578125 C-31.14609606 22.26250692 -30.51198799 25.04088849 -29.69140625 28.79296875 C-29.89319425 31.98794534 -31.05083144 33.69947293 -33.19726562 36.03637695 C-36.2352791 38.51751075 -39.69503867 39.44892528 -43.41796875 40.515625 C-44.22008789 40.76586426 -45.02220703 41.01610352 -45.84863281 41.27392578 C-49.29174891 42.34583928 -52.75069705 43.35988871 -56.2109375 44.375 C-73.7217009 49.7629272 -87.92076469 60.22862284 -96.85546875 76.390625 C-100.68612928 84.07816964 -103.04974284 92.13197082 -104.4296875 100.58984375 C-104.55618179 101.35847748 -104.68267609 102.12711121 -104.81300354 102.91903687 C-106.42038649 113.2880378 -106.88182303 123.76039765 -107.43676758 134.22802734 C-108.61695617 155.91766248 -112.24004412 180.24860268 -129.23046875 195.640625 C-130.75561888 196.91072468 -132.29720045 198.16138295 -133.85546875 199.390625 C-134.57734375 199.96167969 -135.29921875 200.53273438 -136.04296875 201.12109375 C-137.50922515 202.26529741 -138.97933406 203.40458019 -140.453125 204.5390625 C-152.96332952 213.27621437 -152.96332952 213.27621437 -159.1640625 226.5546875 C-159.4810879 232.6069906 -158.47745602 236.53733539 -154.82421875 241.4140625 C-146.09106853 250.18186808 -133.08637873 250.72139274 -121.48046875 251.453125 C-116.93812334 251.75644939 -112.39636748 252.06632459 -107.85546875 252.390625 C-106.45530518 252.48827148 -106.45530518 252.48827148 -105.02685547 252.58789062 C-99.91589802 253.01001176 -95.56770407 253.94752972 -90.73046875 255.765625 C-82.91995664 258.53735341 -75.02986985 260.11751905 -66.85546875 261.390625 C-66.0267627 261.52210938 -65.19805664 261.65359375 -64.34423828 261.7890625 C-23.27962791 268.22699735 26.79130523 269.77361006 66.38671875 254.796875 C72.03154895 252.86842657 77.6059451 252.95182415 83.51953125 252.890625 C105.96117365 252.87461916 105.96117365 252.87461916 126.14453125 244.390625 C130.23210588 240.07502451 132.92932951 236.18824757 133.39453125 230.140625 C132.85511842 222.04943261 128.86170473 216.83368742 123.14453125 211.390625 C118.91018013 207.9202032 114.54456388 204.64653887 110.14453125 201.390625 C91.4849322 187.39592572 82.66916619 170.4195582 79.14453125 147.390625 C78.43575994 141.85197676 77.93949219 136.29156629 77.43774414 130.73104858 C74.9119914 103.05634904 72.18560128 80.14237127 52.14453125 59.390625 C51.603125 58.8234375 51.06171875 58.25625 50.50390625 57.671875 C40.85131133 48.50678487 27.26834924 44.89710715 14.85205078 41.23095703 C9.33070797 39.57052526 4.62400133 38.08808589 0.14453125 34.390625 C-0.80116833 31.95882607 -0.87711953 30.05638643 -0.79296875 27.46875 C-0.65426229 22.85676008 -0.83180514 20.14413845 -3.85546875 16.390625 C-8.49650392 12.31556973 -11.30596296 10.97413864 -17.40234375 11.04296875 C-22.64222658 11.78556361 -26.37184438 14.817084 -29.91796875 18.578125 Z M24.73828125 277.046875 C3.47078635 279.28709902 -17.5204948 280.48263802 -38.89453125 278.60668945 C-43.21762071 278.29122654 -47.52396749 278.3026261 -51.85546875 278.390625 C-50.00711942 287.04868241 -44.22017632 294.44742124 -37.85546875 300.390625 C-37.19546875 300.390625 -36.53546875 300.390625 -35.85546875 300.390625 C-35.85546875 301.050625 -35.85546875 301.710625 -35.85546875 302.390625 C-33.94135318 303.37476933 -32.02407205 304.35275849 -30.10546875 305.328125 C-28.50445312 306.14603516 -28.50445312 306.14603516 -26.87109375 306.98046875 C-17.68179439 311.27753749 -3.81431013 310.90899255 5.83203125 308.203125 C8.05504678 307.39458339 8.05504678 307.39458339 10.14453125 306.390625 C10.90636719 306.03871094 11.66820312 305.68679688 12.453125 305.32421875 C23.58559472 299.6359585 30.98928597 291.23501576 35.14453125 279.390625 C35.14453125 278.400625 35.14453125 277.410625 35.14453125 276.390625 C31.59016107 276.390625 28.2658885 276.65845975 24.73828125 277.046875 Z " fill="#DADADB" transform="translate(263.85546875,90.609375)"/>
<path d="M0 0 C3.0830273 1.41819256 5.41701552 1.88282354 8.75 2.375 C25.96556659 4.9956865 40.40831158 13.14858211 50.9375 27.1875 C55.63520481 34.31198123 59.85115696 42.73592425 59.125 51.4375 C57.5 53.875 57.5 53.875 55.125 55.4375 C52.125 55.625 52.125 55.625 49.125 54.4375 C46.37523335 50.63635199 44.82193891 46.72916109 43.125 42.375 C38.92380213 31.63680314 31.62544458 24.11481772 21.125 19.4375 C17.33432929 18.32553839 13.50932348 17.58193666 9.625 16.875 C2.99338744 15.64192092 -2.80195569 14.18144204 -8.90039062 11.27758789 C-11.6040843 10.12731465 -13.95064215 9.90500714 -16.875 9.9375 C-17.803125 9.9271875 -18.73125 9.916875 -19.6875 9.90625 C-22.5997464 10.3916244 -24.35944813 11.05913109 -26.97265625 12.3203125 C-33.49814905 15.38840059 -40.47971128 16.20184447 -47.54882812 17.328125 C-55.07864901 18.67125738 -60.59972632 21.08488925 -66.875 25.4375 C-67.7825 26.035625 -68.69 26.63375 -69.625 27.25 C-76.11008284 33.55494165 -79.06159872 41.04409003 -81.796875 49.49609375 C-82.875 52.4375 -82.875 52.4375 -84.875 54.4375 C-88.375 54.6875 -88.375 54.6875 -91.875 54.4375 C-94.06942887 52.24307113 -94.67453682 50.74750516 -95.03125 47.68359375 C-94.27395317 36.79745186 -85.87429982 24.62147058 -78.14453125 17.3203125 C-67.44650283 8.44518394 -56.34388209 5.11802315 -43.0078125 2.41992188 C-37.78470573 1.3022349 -33.29420222 -0.04940501 -28.62890625 -2.67993164 C-19.70663553 -7.16963218 -8.34624364 -4.53600198 0 0 Z " fill="#D6D6D7" transform="translate(266.875,147.5625)"/>
<path d="M0 0 C5.92563106 0.49048848 11.40374202 1.81857423 17.125 3.375 C42.93817852 10.05778249 70.41781637 11.70284767 97 11 C97.94552734 10.97534668 98.89105469 10.95069336 99.86523438 10.92529297 C106.91644389 10.72193739 113.95741088 10.40164676 121 10 C121.95664551 9.94618164 122.91329102 9.89236328 123.89892578 9.83691406 C142.38191103 8.71788263 160.34378296 5.42996922 178.2043457 0.56616211 C181.20308664 -0.0411281 183.94846924 -0.09651222 187 0 C187.33 1.65 187.66 3.3 188 5 C178.20547523 8.83595832 168.54765395 11.37147254 158.1875 13.1875 C156.76337934 13.44463772 155.33930748 13.70204586 153.9152832 13.9597168 C144.30887338 15.67862367 134.73481251 17.2304101 125 18 C123.98728027 18.08241943 123.98728027 18.08241943 122.95410156 18.16650391 C100.8445869 19.88163559 78.44918781 19.7974392 56.41845703 17.26904297 C54.12309562 17.01369386 51.82803986 16.79844985 49.52734375 16.59765625 C40.62422965 15.78338354 31.89861639 14.34080151 23.125 12.625 C22.10301514 12.42801514 21.08103027 12.23103027 20.02807617 12.02807617 C12.81008898 10.56067355 5.93651309 8.46929391 -1 6 C-1.042721 4.33388095 -1.04063832 2.66617115 -1 1 C-0.67 0.67 -0.34 0.34 0 0 Z " fill="#D2D2D2" transform="translate(157,268)"/>
<path d="M0 0 C-1.57421877 0.52473959 -3.14847548 1.04936558 -4.72290039 1.57348633 C-6.08992534 2.02971012 -7.456287 2.48792559 -8.82202148 2.94799805 C-11.92952663 3.99227904 -15.0321688 5.00953589 -18.17578125 5.94140625 C-35.43247938 11.14877253 -49.17744937 21.15301857 -58 37 C-61.83689007 44.68182393 -64.19479486 52.74453766 -65.57421875 61.19921875 C-65.70071304 61.96785248 -65.82720734 62.73648621 -65.95753479 63.52841187 C-67.56491774 73.8974128 -68.02635428 84.36977265 -68.58129883 94.83740234 C-69.78856193 117.02461577 -73.65208477 140.96900325 -90.875 156.75 C-96.30730843 161.36992394 -101.95831693 165.69964293 -107.64453125 170 C-113.38432917 174.43720835 -117.65516375 177.96549126 -120 185 C-120.76433416 191.14743046 -120.40213294 196.11935324 -116.74609375 201.24609375 C-108.1619945 209.86860061 -94.99932189 210.34536896 -83.625 211.0625 C-79.08265459 211.36582439 -74.54089873 211.67569959 -70 212 C-68.59983643 212.09764648 -68.59983643 212.09764648 -67.17138672 212.19726562 C-62.06042927 212.61938676 -57.71223532 213.55690472 -52.875 215.375 C-45.06448789 218.14672841 -37.1744011 219.72689405 -29 221 C-28.17129395 221.13148438 -27.34258789 221.26296875 -26.48876953 221.3984375 C14.57584084 227.83637235 64.64677398 229.38298506 104.2421875 214.40625 C109.8870177 212.47780157 115.46141385 212.56119915 121.375 212.5 C143.80518795 212.46852893 143.80518795 212.46852893 164 204 C167.69567738 200.07063811 169.83218052 196.18165322 170.25 190.75 C169.75393428 183.30901418 166.28932676 177.9828424 161 173 C158.19688011 170.71100896 155.32028302 168.52194518 152.40673828 166.37573242 C148.09397967 163.18795935 148.09397967 163.18795935 147 161 C148.48206495 161.254496 149.96068615 161.52911762 151.4375 161.8125 C152.26121094 161.96332031 153.08492188 162.11414063 153.93359375 162.26953125 C154.61550781 162.51058594 155.29742187 162.75164062 156 163 C156.33 163.99 156.66 164.98 157 166 C159.13193315 168.36881461 161.27991836 170.200811 163.875 172.0625 C168.89741929 176.23930788 172.54755834 182.45587365 173.375 188.9375 C173.375 191.32455592 173.27756683 193.63040171 173 196 C172.34 196 171.68 196 171 196 C170.773125 196.70125 170.54625 197.4025 170.3125 198.125 C168.66158712 201.74128535 166.7091165 204.08769976 164 207 C163.34 207 162.68 207 162 207 C162 207.66 162 208.32 162 209 C160.27625607 209.63980405 158.545502 210.26071469 156.8125 210.875 C155.84957031 211.22304688 154.88664062 211.57109375 153.89453125 211.9296875 C143.77647849 214.99922497 133.35556044 215.20973561 122.875 215.3125 C111.60135951 215.55511368 101.77146926 217.02191907 91.05517578 220.38769531 C82.54641031 222.92273734 73.73349563 224.26607663 64.87890625 224.69140625 C61.86932411 224.92867285 61.86932411 224.92867285 58.55883789 226.00268555 C53.12469062 227.38072991 47.75694231 227.28670984 42.1796875 227.265625 C41.04459747 227.26753845 39.90950745 227.2694519 38.74002075 227.27142334 C36.33790872 227.27278078 33.93578923 227.26911523 31.53369141 227.26074219 C27.93504394 227.25017629 24.33691185 227.26057995 20.73828125 227.2734375 C2.555401 227.2851959 -15.60766965 226.62617662 -33.5 223.125 C-34.40161865 222.95500488 -35.3032373 222.78500977 -36.23217773 222.60986328 C-52.79133178 219.38768536 -52.79133178 219.38768536 -60.23632812 215.97485352 C-63.56985161 214.79899139 -66.46523571 214.62889712 -69.99609375 214.47265625 C-71.37435418 214.40179429 -72.75260922 214.33082717 -74.13085938 214.25976562 C-76.26931019 214.15992429 -78.40786479 214.0637864 -80.54663086 213.97094727 C-107.70174671 212.75088429 -107.70174671 212.75088429 -115 206 C-119.35146908 200.97257456 -122.67567403 196.43785526 -123.3125 189.6875 C-122.49302859 180.01773742 -118.15070214 175.15023571 -111 169 C-108.05245041 166.72216576 -105.06005258 164.51476158 -102.05859375 162.30859375 C-93.1929545 155.61690435 -86.30617347 148.81058996 -81 139 C-80.41992188 137.96166016 -80.41992188 137.96166016 -79.828125 136.90234375 C-74.08456205 125.43730848 -72.18133872 111.06529664 -71.53515625 98.44140625 C-71.45651654 96.98762283 -71.37773573 95.53384703 -71.29882812 94.08007812 C-71.18056328 91.83644582 -71.06403139 89.59275082 -70.95043945 87.34887695 C-69.55021563 59.99743323 -65.74701611 36.6872961 -45.17578125 16.875 C-37.05910457 9.88037737 -28.13997907 6.16263013 -18 3 C-17.36497559 2.79713379 -16.72995117 2.59426758 -16.07568359 2.38525391 C-3.92349207 -1.4737019 -3.92349207 -1.4737019 0 0 Z " fill="#454544" transform="translate(226,130)"/>
<path d="M0 0 C5.92563106 0.49048848 11.40374202 1.81857423 17.125 3.375 C42.93817852 10.05778249 70.41781637 11.70284767 97 11 C97.94552734 10.97534668 98.89105469 10.95069336 99.86523438 10.92529297 C106.91644389 10.72193739 113.95741088 10.40164676 121 10 C121.95664551 9.94618164 122.91329102 9.89236328 123.89892578 9.83691406 C142.38191103 8.71788263 160.34378296 5.42996922 178.2043457 0.56616211 C181.20308664 -0.0411281 183.94846924 -0.09651222 187 0 C187.33 1.65 187.66 3.3 188 5 C178.20547523 8.83595832 168.54765395 11.37147254 158.1875 13.1875 C156.76337934 13.44463772 155.33930748 13.70204586 153.9152832 13.9597168 C144.30887338 15.67862367 134.73481251 17.2304101 125 18 C123.98728027 18.08241943 123.98728027 18.08241943 122.95410156 18.16650391 C100.8445869 19.88163559 78.44918781 19.7974392 56.41845703 17.26904297 C54.12309562 17.01369386 51.82803986 16.79844985 49.52734375 16.59765625 C40.62422965 15.78338354 31.89861639 14.34080151 23.125 12.625 C22.10301514 12.42801514 21.08103027 12.23103027 20.02807617 12.02807617 C12.81008898 10.56067355 5.93651309 8.46929391 -1 6 C-1.042721 4.33388095 -1.04063832 2.66617115 -1 1 C-0.67 0.67 -0.34 0.34 0 0 Z M178.421875 2.2421875 C177.50664062 2.50386719 176.59140625 2.76554687 175.6484375 3.03515625 C173.76147096 3.58191879 171.87596189 4.13374499 169.9921875 4.69140625 C162.06837499 6.94124221 154.17417021 8.06536256 146 9 C144.81970215 9.14324707 143.6394043 9.28649414 142.42333984 9.43408203 C98.24314874 14.61499869 50.08074163 15.28818956 7.0390625 2.76953125 C3.87622605 1.83635578 3.87622605 1.83635578 0 2 C0.70706961 5.27110475 0.70706961 5.27110475 3.89453125 6.53515625 C51.21436474 24.95262499 112.81661338 19.23481024 161.3125 10.5 C162.56253815 10.27605057 162.56253815 10.27605057 163.83782959 10.0475769 C166.22343373 9.61524713 168.60612976 9.16967836 170.98828125 8.71875 C171.6943602 8.59061417 172.40043915 8.46247833 173.12791443 8.33045959 C177.78258854 7.42648916 181.72825112 5.98339891 186 4 C186 3.01 186 2.02 186 1 C183.09854126 1 181.17996315 1.43011423 178.421875 2.2421875 Z " fill="#333335" transform="translate(157,268)"/>
<path d="M0 0 C13.01329635 16.00181499 13.44144252 41.26912946 15 60.875 C16.76742236 82.59683904 20.72494673 103.89629599 38.125 118.75 C41.95268368 121.74557853 45.90369407 124.54244733 49.87695312 127.34008789 C60.64561964 134.95114734 67.70139783 141.66150193 70.4375 155 C71.7673178 165.09628656 69.14785128 172.9391907 63 181 C52.73955318 192.39827847 38.88549075 196.09197962 24.04589844 197.32983398 C20.70331286 197.49011472 17.36256719 197.62429145 14.01815796 197.73529053 C-7.30270198 198.08851906 -7.30270198 198.08851906 -27 205 C-29.8954977 208.89984008 -30.47465259 212.252416 -31 217 C-31.85536474 219.12855742 -32.88531045 220.99355881 -34 223 C-34.6875 221.4375 -34.6875 221.4375 -35 219 C-34.33325722 217.33314305 -33.646862 215.67005196 -32.83984375 214.06640625 C-31.88465813 211.97471372 -31.88465813 211.97471372 -31.69140625 209.46484375 C-31.24941747 206.37092232 -30.82677796 204.56107106 -29 202 C-24.4674153 200.14204861 -20.00176036 199.29430888 -15.19334412 198.4811554 C-13.05670011 198.01243834 -11.25352562 197.33078917 -9.24707031 196.47216797 C-5.12395526 194.89200684 -1.25887288 194.59025534 3.12890625 194.62890625 C4.67513222 194.61150571 6.22135613 194.59392155 7.76757812 194.57617188 C10.15409542 194.56618848 12.54046483 194.56248407 14.92700195 194.56420898 C29.1254412 194.54206774 42.02423746 193.37388286 54.14453125 185.171875 C56 184 56 184 58 184 C58.268125 183.44054687 58.53625 182.88109375 58.8125 182.3046875 C60.09032806 179.82469225 61.52487023 177.49258328 63 175.125 C67.64708448 167.34963425 69.49670393 160.46897539 67.41796875 151.484375 C62.78463014 138.02865192 50.41967925 130.16325679 39.44921875 122.1328125 C33.96981562 118.02562604 29.11632723 113.5071299 25 108 C25 107.34 25 106.68 25 106 C24.34 106 23.68 106 23 106 C21.75669077 103.05144055 20.52273873 100.0997325 19.3046875 97.140625 C18.58606602 95.4107697 17.85486723 93.68534239 17.0703125 91.984375 C12.34393405 81.16730268 12.71014132 67.34734774 11.73849487 55.65679932 C11.22082521 35.42514312 11.22082521 35.42514312 5 17 C4.46034467 15.53483579 3.96271523 14.0537507 3.5 12.5625 C2.77167304 10.22314546 2.06753856 8.12566997 0.90625 5.96484375 C0 4 0 4 0 0 Z " fill="#39393A" transform="translate(342,160)"/>
<path d="M0 0 C2.95483536 2.09697993 5.36494379 4.05396142 7.125 7.25 C7.21423636 10.85344912 6.92989598 14.34570931 6.64453125 17.9375 C6.79304577 21.43960593 6.79304577 21.43960593 9.66015625 23.54296875 C13.29080542 25.33168768 16.853115 26.5464015 20.75 27.5625 C27.51801535 29.45573547 34.21601124 31.50159764 40.875 33.75 C41.7201416 34.02239502 42.5652832 34.29479004 43.43603516 34.57543945 C48.51105515 36.31534405 51.51792777 38.13034382 55.125 42.25 C56.74391507 43.65288621 58.36893936 45.04875348 60 46.4375 C64.97367694 50.91749345 68.68444881 55.52115769 72.125 61.25 C72.7334375 62.24257812 73.341875 63.23515625 73.96875 64.2578125 C82.69678049 79.90169766 83.36522021 97.83051325 85.125 115.3125 C87.90967577 142.90716633 91.07429975 167.22306941 113.65625 186.0703125 C114.1409375 186.45960938 114.625625 186.84890625 115.125 187.25 C110.17780604 187.25 107.557042 183.55516429 104.125 180.25 C103.52042969 179.67121094 102.91585937 179.09242188 102.29296875 178.49609375 C96.67393221 172.6233761 93.44130969 165.56488101 90.125 158.25 C89.63 157.18458984 89.63 157.18458984 89.125 156.09765625 C84.24157257 144.4740816 83.53852871 131.00608901 82.41821289 118.59042358 C79.74684559 89.32022383 76.75131886 63.59567614 52.9375 43.5 C43.19567213 36.36044122 31.20821573 33.14538089 19.76489258 29.78515625 C13.26632918 27.82577873 8.03161579 26.10992368 4.125 20.25 C4.03515625 17.7265625 4.03515625 17.7265625 4.1875 14.875 C4.25195897 10.42733084 4.23768332 7.67395166 1.125 4.25 C-2.96161192 0.6498895 -6.23743531 -0.45012986 -11.55859375 -0.20703125 C-16.25390996 0.71936335 -20.4402461 3.13539348 -23.14453125 7.12109375 C-24.05534455 9.77560311 -23.69242624 11.3328359 -23.125 14.0625 C-22.70240368 17.19714306 -22.55123924 18.68366927 -24.13671875 21.45703125 C-25.63823812 23.17555342 -27.1587375 24.74764848 -28.875 26.25 C-29.865 25.92 -30.855 25.59 -31.875 25.25 C-31.05257812 24.72277344 -30.23015625 24.19554688 -29.3828125 23.65234375 C-26.57589327 21.46893397 -26.57589327 21.46893397 -26.4921875 18.19140625 C-26.57726562 17.07636719 -26.66234375 15.96132812 -26.75 14.8125 C-27.10595476 9.85783935 -26.88516683 7.27514225 -23.875 3.25 C-17.26574375 -3.7293746 -8.16227567 -5.28617201 0 0 Z " fill="#49494C" transform="translate(257.875,102.75)"/>
<path d="M0 0 C1.85546875 0.75 1.85546875 0.75 2.85546875 2.75 C1.22923826 7.83056834 -1.30749649 11.1483245 -5.5625 14.34765625 C-11.64128195 19.73600864 -15.07563082 27.91453375 -17.20703125 35.5625 C-18.14453125 38.75 -18.14453125 38.75 -20.14453125 40.75 C-24.70008681 40.19444444 -24.70008681 40.19444444 -26.14453125 38.75 C-26.04329575 27.18384395 -20.67860055 16.17777388 -12.70703125 7.9375 C-3.71952563 -0.4336059 -3.71952563 -0.4336059 0 0 Z " fill="#DBDBDC" transform="translate(201.14453125,159.25)"/>
<path d="M0 0 C-1.55962531 6.89785504 -3.26129039 13.54188233 -8 19 C-8.66 19 -9.32 19 -10 19 C-10.24105469 19.57878906 -10.48210937 20.15757812 -10.73046875 20.75390625 C-15.59309287 29.35701046 -26.04529985 33.26547164 -35 36 C-44.9546578 38.53714493 -56.54290108 37.93333228 -66 34 C-66.68191406 33.74476563 -67.36382812 33.48953125 -68.06640625 33.2265625 C-74.75974651 30.37108662 -81.24262178 24.89133748 -84.2578125 18.21484375 C-84.50273437 17.48394531 -84.74765625 16.75304687 -85 16 C-83.948125 17.0828125 -83.948125 17.0828125 -82.875 18.1875 C-80.91006927 20.16932126 -78.86821544 21.94707153 -76.6875 23.6875 C-75.800625 24.450625 -74.91375 25.21375 -74 26 C-74 26.66 -74 27.32 -74 28 C-73.26910156 28.28617187 -72.53820312 28.57234375 -71.78515625 28.8671875 C-70.10469887 29.55068349 -68.43869434 30.27414929 -66.80859375 31.0703125 C-56.15228963 35.81034893 -41.0628194 36.10927527 -30.09375 31.9765625 C-17.27599848 25.99813362 -9.2458963 18.87119398 -4.125 5.375 C-3.568125 3.704375 -3.568125 3.704375 -3 2 C-4.00740234 2.18175781 -4.00740234 2.18175781 -5.03515625 2.3671875 C-33.20594728 7.09261051 -61.65652963 7.12160072 -90 4 C-90.33 4.66 -90.66 5.32 -91 6 C-91.33 4.68 -91.66 3.36 -92 2 C-90.783125 2.0721875 -89.56625 2.144375 -88.3125 2.21875 C-48.69711621 4.62219514 -48.69711621 4.62219514 -9.42260742 0.47045898 C-6.26059126 -0.1435897 -3.21205224 -0.06298142 0 0 Z " fill="#3B3B3B" transform="translate(302,365)"/>
<path d="M0 0 C4.80054591 0.60619138 9.32766737 1.57017427 14 2.8125 C22.46362198 4.92229228 31.04664129 6.08363417 39.6875 7.1875 C40.98107422 7.35419189 42.27464844 7.52088379 43.60742188 7.69262695 C52.06376695 8.73892232 60.4961137 9.47770889 69 10 C69.495 11.98 69.495 11.98 70 14 C84.19 14 98.38 14 113 14 C113 14.33 113 14.66 113 15 C20.12618903 17.18502885 20.12618903 17.18502885 0 2 C0 1.34 0 0.68 0 0 Z " fill="#C4C4C6" transform="translate(157,270)"/>
<path d="M0 0 C0.66 0.33 1.32 0.66 2 1 C0.625 2.5 0.625 2.5 -1 4 C-1.66 4 -2.32 4 -3 4 C-3.33 4.99 -3.66 5.98 -4 7 C-4.7425 7.721875 -5.485 8.44375 -6.25 9.1875 C-13.26985273 16.36689484 -15.30698794 22.77635643 -15.21875 32.703125 C-14.76783665 39.49903338 -12.00968007 44.53225445 -8 50 C-7.1028125 51.299375 -7.1028125 51.299375 -6.1875 52.625 C-2.65758946 56.4574743 1.76745141 59.16279223 7 60 C7 60.66 7 61.32 7 62 C10.91527225 62.49102577 14.83214499 62.96753126 18.75 63.4375 C19.93126465 63.57945801 21.1125293 63.72141602 22.32958984 63.86767578 C29.44352175 64.68906832 36.46938859 65.19842372 43.625 65.375 C51.45905222 65.6075857 58.13728104 67.18861283 65.5 69.796875 C69.30097798 71.10346118 73.01775485 71.90307932 76.96484375 72.6015625 C79.73084542 73.14308298 82.32892296 74.10964099 85 75 C87.32694964 75.37531446 89.65976685 75.71917202 92 76 C92.99 80.95 92.99 80.95 94 86 C91.4345406 83.4345406 91.45953913 81.52313332 91 78 C90.01644531 77.85304688 89.03289062 77.70609375 88.01953125 77.5546875 C80.74945641 76.39970378 73.77762514 75.00879596 66.76489258 72.74389648 C54.77143674 68.89821309 43.18956029 68.08756706 30.66015625 67.40625 C15.98625376 66.58819272 0.90946287 63.76310122 -9.625 52.625 C-10.79809761 51.11960865 -11.92771744 49.57878789 -13 48 C-13.45117188 47.34773438 -13.90234375 46.69546875 -14.3671875 46.0234375 C-18.67623403 38.32658888 -18.31004744 27.58901894 -16.33984375 19.18359375 C-13.13283728 11.20078544 -6.65602249 5.19494438 0 0 Z " fill="#3D3D3D" transform="translate(107,289)"/>
<path d="M0 0 C0.33 0 0.66 0 1 0 C1.9149484 7.01460441 -0.81283111 11.4805501 -5 17 C-15.25034708 28.40251788 -29.12105817 32.09252591 -43.95410156 33.32983398 C-47.29668714 33.49011472 -50.63743281 33.62429145 -53.98184204 33.73529053 C-75.30270198 34.08851906 -75.30270198 34.08851906 -95 41 C-97.8954977 44.89984008 -98.47465259 48.252416 -99 53 C-99.85536474 55.12855742 -100.88531045 56.99355881 -102 59 C-102.6875 57.4375 -102.6875 57.4375 -103 55 C-102.33325722 53.33314305 -101.646862 51.67005196 -100.83984375 50.06640625 C-99.88465813 47.97471372 -99.88465813 47.97471372 -99.69140625 45.46484375 C-99.24941747 42.37092232 -98.82677796 40.56107106 -97 38 C-92.4674153 36.14204861 -88.00176036 35.29430888 -83.19334412 34.4811554 C-81.05670011 34.01243834 -79.25352562 33.33078917 -77.24707031 32.47216797 C-73.12395526 30.89200684 -69.25887288 30.59025534 -64.87109375 30.62890625 C-63.32486778 30.61150571 -61.77864387 30.59392155 -60.23242188 30.57617188 C-57.84590458 30.56618848 -55.45953517 30.56248407 -53.07299805 30.56420898 C-38.8745588 30.54206774 -25.97576254 29.37388286 -13.85546875 21.171875 C-12 20 -12 20 -10 20 C-9.731875 19.44054687 -9.46375 18.88109375 -9.1875 18.3046875 C-7.90967194 15.82469225 -6.47512977 13.49258328 -5 11.125 C-2.80010372 7.49785395 -1.08767821 4.13317719 0 0 Z " fill="#414142" transform="translate(410,324)"/>
<path d="M0 0 C5.92563106 0.49048848 11.40374202 1.81857423 17.125 3.375 C48.26573224 11.43703466 81.03091773 11.35653786 113 12 C113 12.33 113 12.66 113 13 C87.48166951 13.3440317 62.34369879 13.28250195 37 10 C35.62255615 9.82380127 35.62255615 9.82380127 34.21728516 9.64404297 C22.56073132 8.08635916 11.31097337 5.17259009 0 2 C13.34446859 15.92619266 50.59150944 14.1284601 69 16 C69 16.33 69 16.66 69 17 C53.34709968 17.41556373 38.48322127 15.62203218 23.125 12.625 C22.1035791 12.42817627 21.0821582 12.23135254 20.02978516 12.02856445 C12.81126776 10.5607176 5.93710444 8.46950442 -1 6 C-1.042721 4.33388095 -1.04063832 2.66617115 -1 1 C-0.67 0.67 -0.34 0.34 0 0 Z " fill="#424243" transform="translate(157,268)"/>
<path d="M0 0 C0.671875 1.65625 0.671875 1.65625 1 4 C-0.109375 6.59375 -0.109375 6.59375 -1.75 9.5 C-10.82311274 27.05815335 -9.91290852 48.02056019 -10.53344727 67.36621094 C-10.88720507 76.40618748 -12.22147934 85.1409537 -14 94 C-14.66 94 -15.32 94 -16 94 C-16.103125 94.66 -16.20625 95.32 -16.3125 96 C-18.34368253 104.86334195 -22.43666997 110.89832492 -28 118 C-28.5775 118.74507813 -29.155 119.49015625 -29.75 120.2578125 C-31.08576065 121.9074769 -32.53354976 123.46534277 -34 125 C-34.99 125 -35.98 125 -37 125 C-37 124.34 -37 123.68 -37 123 C-35.85079284 121.97616089 -34.65340952 121.00615653 -33.4375 120.0625 C-20.80492983 109.28568793 -15.88012436 92.18389527 -14.54248047 76.15600586 C-14.08966535 69.81249548 -13.74914885 63.46220704 -13.41870117 57.11132812 C-12.87788526 47.00174775 -12.07300808 37.11082728 -10.09765625 27.16796875 C-9.93930801 26.37031097 -9.78095978 25.5726532 -9.61781311 24.75082397 C-7.78226289 16.14754592 -4.90117766 7.35176649 0 0 Z " fill="#393939" transform="translate(155,158)"/>
<path d="M0 0 C2.04993126 0.79892758 3.76556069 1.7840762 5.64453125 2.921875 C8.96901776 4.44353052 12.4204541 4.96217566 16 5.5625 C21.63840983 6.5090517 26.74973517 7.70300914 32 10 C28.96491628 10.94395416 26.87344803 11.0005092 23.76953125 10.36328125 C22.9710376 10.19989258 22.17254395 10.03650391 21.34985352 9.86816406 C20.09386353 9.59311035 20.09386353 9.59311035 18.8125 9.3125 C17.95261475 9.13041992 17.09272949 8.94833984 16.20678711 8.76074219 C11.90564427 7.80647855 7.99996499 6.78435691 4.0625 4.75 C-1.04313709 2.19210627 -6.42721469 2.07120245 -12 3 C-13.37901095 3.59821297 -14.74389658 4.22946365 -16.09765625 4.8828125 C-22.62314905 7.95090059 -29.60471128 8.76434447 -36.67382812 9.890625 C-44.20364901 11.23375738 -49.72472632 13.64738925 -56 18 C-56.9075 18.598125 -57.815 19.19625 -58.75 19.8125 C-65.17031797 26.05447581 -68.32623465 33.58550316 -71 42 C-71.33 42 -71.66 42 -72 42 C-71.53026933 32.13565592 -67.8361043 25.15406264 -61 18 C-55.73711522 13.28075387 -50.7322136 10.93013378 -44 9 C-42.62490765 8.47941054 -41.24990935 7.95857259 -39.875 7.4375 C-35.74822646 6.0280034 -31.70233417 5.54804734 -27.375 5.0625 C-21.51568432 4.46042914 -21.51568432 4.46042914 -16.375 1.875 C-11.10264403 -1.05408665 -5.89721575 -0.74638946 0 0 Z " fill="#454648" transform="translate(256,155)"/>
<path d="M0 0 C2.70270375 2.40063686 4.12225794 4.91523897 5.75 8.125 C9.61826626 15.37200006 14.09043346 22.34005978 21 27 C22.04414063 27.72316406 22.04414063 27.72316406 23.109375 28.4609375 C35.98272637 36.86551403 51.44977419 37.81608627 66.375 35.3125 C83.19052303 31.1737396 95.15208057 21.88809151 105 8 C105.495 8.99 105.495 8.99 106 10 C95.20437514 25.87760784 82.49407551 34.61947443 63.5625 38.75 C44.66162954 40.07637687 29.94341227 37.2250463 14.97265625 25.3984375 C8.19088829 19.30156096 3.91053617 11.13789819 0 3 C0 2.01 0 1.02 0 0 Z " fill="#3F3F3F" transform="translate(201,375)"/>
<path d="M0 0 C0.66 0 1.32 0 2 0 C4.92212485 11.10247859 6.76802958 21.95079281 7.78112793 33.38128662 C10.23173409 60.60242299 12.81893038 85.9250387 34.5 105.125 C35.65913384 106.09243094 36.82287446 107.05454278 38 108 C33.05280604 108 30.432042 104.30516429 27 101 C26.39542969 100.42121094 25.79085938 99.84242188 25.16796875 99.24609375 C19.54893221 93.3733761 16.31630969 86.31488101 13 79 C12.67 78.28972656 12.34 77.57945312 12 76.84765625 C6.77794972 64.41808865 6.21067132 49.89086655 5 36.625 C3.8690196 24.28528192 2.35445655 12.1705783 0 0 Z " fill="#4A4A4A" transform="translate(335,182)"/>
<path d="M0 0 C6.3273951 4.1030103 12.11421833 9.95915913 14.14453125 17.390625 C14.43822547 21.08627725 14.38917689 24.69375761 14.14453125 28.390625 C15.04945313 28.46410156 15.04945313 28.46410156 15.97265625 28.5390625 C16.771875 28.61382812 17.57109375 28.68859375 18.39453125 28.765625 C19.1834375 28.83523437 19.97234375 28.90484375 20.78515625 28.9765625 C23.23040825 29.40569613 24.99290028 30.17663138 27.14453125 31.390625 C22.11432365 30.86524776 17.12567886 30.28467714 12.14453125 29.390625 C12.13035156 28.62878906 12.11617188 27.86695312 12.1015625 27.08203125 C11.76685173 19.83599544 10.92361835 14.0475036 6.14453125 8.390625 C-2.08092878 1.34023069 -9.02303036 -1.26547005 -19.84765625 -1.1171875 C-27.40494132 -0.46399869 -35.0016905 3.73204737 -40.04296875 9.390625 C-42.8591313 14.0133824 -42.87372574 19.88445826 -43.30078125 25.16015625 C-43.48382813 26.22621094 -43.666875 27.29226562 -43.85546875 28.390625 C-46.94435397 30.44988181 -47.56482802 30.6296624 -51.04296875 30.515625 C-52.30109375 30.474375 -53.55921875 30.433125 -54.85546875 30.390625 C-51.68937413 28.51442078 -49.49714474 28.29399678 -45.85546875 28.390625 C-45.901875 27.77316406 -45.94828125 27.15570313 -45.99609375 26.51953125 C-46.34602073 18.30874452 -44.16254068 13.06752088 -39.85546875 6.203125 C-30.10304268 -4.28367051 -12.64347498 -6.11711566 0 0 Z " fill="#363635" transform="translate(263.85546875,90.609375)"/>
<path d="M0 0 C11.62528306 0.51667925 20.91860066 8.50238577 28.68554688 16.54443359 C35.42349292 24.00573269 40.05216916 33.48366296 41.5 43.4375 C41 46 41 46 39.375 48.4375 C37 50 37 50 34 50.1875 C30.56470466 48.8276956 29.55548568 47.42909522 27.9296875 44.1640625 C26.90257006 41.7732093 25.94489638 39.36200157 25 36.9375 C22.08354079 29.4830753 17.73566715 24.44566151 12 19 C16.30218274 19 17.91502495 21.06031179 21.00390625 23.8828125 C26.14527061 29.33607959 28.50095998 35.7971711 30.421875 42.93359375 C30.94047453 45.0390264 30.94047453 45.0390264 32 47 C33.66611905 47.042721 35.33382885 47.04063832 37 47 C37.33 46.67 37.66 46.34 38 46 C37.43081799 34.04717774 32.58948901 23.54963323 24.0625 15.07421875 C21.79537981 13.09521175 19.69610292 11.34805146 17 10 C17 9.34 17 8.68 17 8 C16.30519531 7.72414062 15.61039062 7.44828125 14.89453125 7.1640625 C11.81490906 5.92556397 8.75049088 4.65405114 5.6875 3.375 C4.08455078 2.70597656 4.08455078 2.70597656 2.44921875 2.0234375 C1.23685547 1.51683594 1.23685547 1.51683594 0 1 C0 0.67 0 0.34 0 0 Z " fill="#3D3E3E" transform="translate(285,153)"/>
<path d="M0 0 C17.49 0 34.98 0 53 0 C50 3 50 3 47.81697083 3.36076355 C46.54789131 3.3507708 46.54789131 3.3507708 45.25317383 3.34057617 C44.29240433 3.34034958 43.33163483 3.34012299 42.3417511 3.33988953 C41.30729355 3.32440567 40.272836 3.30892181 39.20703125 3.29296875 C38.14586594 3.28872391 37.08470062 3.28447906 35.99137878 3.28010559 C32.59816235 3.26329706 29.20553728 3.22564019 25.8125 3.1875 C23.51368044 3.172456 21.21485159 3.15876711 18.91601562 3.14648438 C13.27714158 3.11338645 7.63861303 3.0631653 2 3 C2 2.34 2 1.68 2 1 C1.34 0.67 0.68 0.34 0 0 Z " fill="#D3D3D5" transform="translate(225,281)"/>
<path d="M0 0 C0.33 0.66 0.66 1.32 1 2 C0.67 2.99 0.34 3.98 0 5 C-0.76433416 11.14743046 -0.40213294 16.11935324 3.25390625 21.24609375 C11.8380055 29.86860061 25.00067811 30.34536896 36.375 31.0625 C40.91734632 31.36582445 45.45907647 31.67604135 50 32 C51.00450195 32.06944824 52.00900391 32.13889648 53.04394531 32.21044922 C53.94983398 32.28408691 54.85572266 32.35772461 55.7890625 32.43359375 C56.5826416 32.49474365 57.3762207 32.55589355 58.19384766 32.61889648 C59.08789307 32.80754272 59.08789307 32.80754272 60 33 C60.33 33.66 60.66 34.32 61 35 C13.57990706 33.58258288 13.57990706 33.58258288 4.88671875 26.20703125 C0.21576614 21.20727452 -2.65014487 16.32362373 -3.375 9.4375 C-2.96575751 5.68611048 -1.89506619 3.23740475 0 0 Z " fill="#3A3A3A" transform="translate(106,310)"/>
<path d="M0 0 C-1.10794922 0.4021875 -1.10794922 0.4021875 -2.23828125 0.8125 C-12.87944624 4.9229373 -22.26618878 10.61410313 -29 20 C-29.67482422 20.92232422 -29.67482422 20.92232422 -30.36328125 21.86328125 C-34.8433839 28.45788662 -37.63627412 35.94052784 -37 44 C-34.64632287 44.6878236 -34.64632287 44.6878236 -32 45 C-31.01 44.34 -30.02 43.68 -29 43 C-29.875 46.875 -29.875 46.875 -31 48 C-34.4375 48.1875 -34.4375 48.1875 -38 48 C-40.19442887 45.80557113 -40.79953682 44.31000516 -41.15625 41.24609375 C-40.39895317 30.35995186 -31.99929982 18.18397058 -24.26953125 10.8828125 C-7.95510607 -2.65170202 -7.95510607 -2.65170202 0 0 Z " fill="#3C3B39" transform="translate(213,154)"/>
<path d="M0 0 C0.495 2.475 0.495 2.475 1 5 C0.01 3.515 0.01 3.515 -1 2 C-6.82584934 3.04179894 -12.4906274 4.39288226 -18.1875 6 C-25.03464354 7.88062015 -31.82744837 9.02607847 -38.89794922 9.7734375 C-41.14442216 10.01556606 -43.38599286 10.2894577 -45.62890625 10.5625 C-60.41434783 12.25773861 -75.13397668 12.2109116 -90 12 C-90 11.67 -90 11.34 -90 11 C-89.39341553 10.98018066 -88.78683105 10.96036133 -88.16186523 10.93994141 C-61.04215081 10.01924961 -35.07292042 7.72201468 -8.7956543 0.56616211 C-5.79691336 -0.0411281 -3.05153076 -0.09651222 0 0 Z " fill="#363636" transform="translate(344,268)"/>
<path d="M0 0 C15.3016422 0.08564352 28.61631126 0.68166131 43 6 C45.64792588 6.62631624 48.28667928 7.12763022 50.96484375 7.6015625 C53.73084542 8.14308298 56.32892296 9.10964099 59 10 C61.32694964 10.37531446 63.65976685 10.71917202 66 11 C66.99 15.95 66.99 15.95 68 21 C65.4345406 18.4345406 65.45953913 16.52313332 65 13 C64.01644531 12.85304688 63.03289062 12.70609375 62.01953125 12.5546875 C53.62322685 11.22171256 45.62686294 9.37913823 37.5 6.875 C29.46392467 4.4286637 22.08347604 3.3472981 13.7109375 3.14453125 C8.99493652 2.96085542 4.56545274 2.15538485 0 1 C0 0.67 0 0.34 0 0 Z " fill="#454545" transform="translate(133,354)"/>
<path d="M0 0 C0.33 0 0.66 0 1 0 C1.39489805 12.37347214 0.41112809 23.85824781 -2 36 C-2.66 36 -3.32 36 -4 36 C-4.103125 36.66 -4.20625 37.32 -4.3125 38 C-6.34368253 46.86334195 -10.43666997 52.89832492 -16 60 C-16.86625 61.11761719 -16.86625 61.11761719 -17.75 62.2578125 C-19.08576065 63.9074769 -20.53354976 65.46534277 -22 67 C-22.99 67 -23.98 67 -25 67 C-25 66.34 -25 65.68 -25 65 C-23.85079284 63.97616089 -22.65340952 63.00615653 -21.4375 62.0625 C-9.22197819 51.64147078 -5.76115481 36.9448495 -2.83203125 21.90234375 C-2 18 -2 18 -1 17 C-0.76298761 14.14122091 -0.57780818 11.30116703 -0.4375 8.4375 C-0.39431641 7.63119141 -0.35113281 6.82488281 -0.30664062 5.99414062 C-0.20024738 3.99631195 -0.09959112 1.9981793 0 0 Z " fill="#323232" transform="translate(143,216)"/>
<path d="M0 0 C1.36066226 0.01507524 2.72134069 0.02875862 4.08203125 0.04101562 C7.38843843 0.07619017 10.69400684 0.12541712 14 0.1875 C14 0.5175 14 0.8475 14 1.1875 C12.84383179 1.217229 12.84383179 1.217229 11.66430664 1.24755859 C8.13006151 1.34354454 4.59634883 1.45292329 1.0625 1.5625 C-0.75604492 1.60890625 -0.75604492 1.60890625 -2.61132812 1.65625 C-9.34073509 1.8750925 -15.48769065 2.45931435 -22 4.1875 C-22 4.8475 -22 5.5075 -22 6.1875 C-23.03640625 6.33703125 -24.0728125 6.4865625 -25.140625 6.640625 C-29.39288826 7.40703341 -33.05802377 8.36219361 -37 10.1875 C-39.48191174 13.98656665 -40.15334571 17.77784225 -41 22.1875 C-41.87322612 24.30039534 -42.88910331 26.18788596 -44 28.1875 C-44.6875 26.625 -44.6875 26.625 -45 24.1875 C-44.33325722 22.52064305 -43.646862 20.85755196 -42.83984375 19.25390625 C-41.88465813 17.16221372 -41.88465813 17.16221372 -41.69140625 14.65234375 C-41.24941747 11.55842232 -40.82677796 9.74857106 -39 7.1875 C-34.42427847 5.3118664 -29.90904191 4.46196477 -25.05322266 3.64819336 C-22.68362307 3.18654171 -22.68362307 3.18654171 -19.41796875 1.6015625 C-13.25289416 -0.84220309 -6.51551547 -0.12443933 0 0 Z " fill="#747475" transform="translate(352,354.8125)"/>
<path d="M0 0 C4.0838529 1.87857233 8.07930603 2.33078624 12.515625 2.91015625 C15.125 3.4375 15.125 3.4375 17.125 5.4375 C3.1455985 5.04482018 3.1455985 5.04482018 -3.10546875 1.42578125 C-9.85579828 -2.34427034 -18.38732828 -2.46280339 -25.875 -1.5625 C-28.64883619 -0.49042825 -31.1875277 0.81251451 -33.8203125 2.19140625 C-39.84428366 4.6487551 -46.43884841 4.89644334 -52.875 5.4375 C-49.37495417 3.10413611 -46.82005673 2.76714859 -42.6875 2.0625 C-36.79059228 0.99136132 -32.08934572 -0.61098355 -26.875 -3.5625 C-17.85299526 -6.39221228 -8.14809646 -4.42831329 0 0 Z " fill="#383936" transform="translate(266.875,147.5625)"/>
<path d="M0 0 C5.23788134 0.65989056 10.25557721 1.72576086 15.375 3 C21.25298179 4.42890165 26.95167685 5.56012195 33 6 C33 6.33 33 6.66 33 7 C31.02 7 29.04 7 27 7 C27 7.66 27 8.32 27 9 C17.81758229 8.41086258 7.68123519 7.45661516 0 2 C0 1.34 0 0.68 0 0 Z " fill="#BCBBBD" transform="translate(157,270)"/>
<path d="M0 0 C0.495 0.99 0.495 0.99 1 2 C-6.57443341 13.14005765 -13.8492184 20.11195605 -26 26 C-26.70253906 26.34289062 -27.40507812 26.68578125 -28.12890625 27.0390625 C-33.39139718 29.31415959 -38.32982354 29.31371878 -44 29 C-44 28.67 -44 28.34 -44 28 C-43.41734375 27.91363281 -42.8346875 27.82726562 -42.234375 27.73828125 C-23.8102253 24.58068327 -10.62077602 14.97801746 0 0 Z " fill="#484848" transform="translate(306,383)"/>
<path d="M0 0 C0 0.66 0 1.32 0 2 C-1.10794922 2.20302734 -1.10794922 2.20302734 -2.23828125 2.41015625 C-10.38187308 4.13821195 -16.31223151 7.09956464 -23 12 C-23.86753906 12.63292969 -24.73507813 13.26585937 -25.62890625 13.91796875 C-33.3781528 19.84525505 -39.8802128 26.6803458 -45 35 C-45.33 34.34 -45.66 33.68 -46 33 C-35.76621769 17.96377236 -19.87067418 0 0 0 Z " fill="#3E3F3D" transform="translate(202,123)"/>
<path d="M0 0 C7.57563515 0.60605081 11.66861668 3.37211536 16.6875 8.875 C22.53355169 15.92388976 23.43333467 20.98021904 23 30 C23.60328125 30.04898438 24.2065625 30.09796875 24.828125 30.1484375 C25.62734375 30.22320312 26.4265625 30.29796875 27.25 30.375 C28.03890625 30.44460937 28.8278125 30.51421875 29.640625 30.5859375 C32.085877 31.01507113 33.84836903 31.78600638 36 33 C30.9697924 32.47462276 25.98114761 31.89405214 21 31 C20.98582031 30.23816406 20.97164063 29.47632812 20.95703125 28.69140625 C20.62232048 21.44537044 19.7790871 15.6568786 15 10 C10.39804017 6.055463 5.68731168 3.10227414 0 1 C0 0.67 0 0.34 0 0 Z " fill="#3F3F3F" transform="translate(255,89)"/>
<path d="M0 0 C0 1.32 0 2.64 0 4 C-2.89547264 4.33675279 -5.79131072 4.66951734 -8.6875 5 C-9.50412109 5.09539062 -10.32074219 5.19078125 -11.16210938 5.2890625 C-15.12860052 5.73870522 -19.00002463 6.13034543 -23 6 C-22.34 5.34 -21.68 4.68 -21 4 C-23.31 3.67 -25.62 3.34 -28 3 C-28 2.67 -28 2.34 -28 2 C-24.83402429 1.65988375 -21.6671312 1.32916813 -18.5 1 C-17.613125 0.90460938 -16.72625 0.80921875 -15.8125 0.7109375 C-10.50765526 0.16485054 -5.33262848 -0.0996753 0 0 Z " fill="#BFBFBF" transform="translate(298,278)"/>
<path d="M0 0 C1.48206495 0.254496 2.96068615 0.52911762 4.4375 0.8125 C5.67306641 1.03873047 5.67306641 1.03873047 6.93359375 1.26953125 C7.95646484 1.63111328 7.95646484 1.63111328 9 2 C9.33 2.99 9.66 3.98 10 5 C12.13193315 7.36881461 14.27991836 9.200811 16.875 11.0625 C21.89741929 15.23930788 25.54755834 21.45587365 26.375 27.9375 C26.375 30.32455592 26.27756683 32.63040171 26 35 C25.34 35 24.68 35 24 35 C23.92523438 34.154375 23.85046875 33.30875 23.7734375 32.4375 C23.64195312 31.303125 23.51046875 30.16875 23.375 29 C23.25898438 27.88625 23.14296875 26.7725 23.0234375 25.625 C20.66253235 17.26271001 14.29115396 12.19170165 7.625 7.0625 C6.17777555 5.93082624 4.73235058 4.79684602 3.2890625 3.66015625 C2.65693848 3.17168213 2.02481445 2.68320801 1.37353516 2.17993164 C0.92026855 1.7905542 0.46700195 1.40117676 0 1 C0 0.67 0 0.34 0 0 Z " fill="#575758" transform="translate(373,291)"/>
<path d="M0 0 C0.495 1.485 0.495 1.485 1 3 C-6.1620663 6.14933343 -13.2178396 8.19111587 -20.875 9.75 C-21.87402344 9.97042969 -22.87304688 10.19085938 -23.90234375 10.41796875 C-31.00950893 11.894425 -37.75156613 12.26076977 -45 12 C-45 11.67 -45 11.34 -45 11 C-43.86981445 10.79842285 -42.73962891 10.5968457 -41.57519531 10.38916016 C-37.37712014 9.63871649 -33.18054634 8.88015147 -28.984375 8.11914062 C-27.16901859 7.79107979 -25.35326398 7.46521442 -23.53710938 7.14160156 C-20.92469895 6.67571218 -18.31382849 6.20191201 -15.703125 5.7265625 C-14.89256653 5.58376862 -14.08200806 5.44097473 -13.24688721 5.29385376 C-9.47445903 4.59940605 -6.39643216 3.84351799 -3 2 C-2.01 2 -1.02 2 0 2 C0 1.34 0 0.68 0 0 Z " fill="#4E4E4F" transform="translate(343,270)"/>
<path d="M0 0 C17.12826119 2.8547102 28.12521101 13.15073815 39 26 C38.67 26.66 38.34 27.32 38 28 C37.175 26.989375 36.35 25.97875 35.5 24.9375 C26.12491042 14.10840348 13.63513525 5.49268281 0 1 C0 0.67 0 0.34 0 0 Z " fill="#444443" transform="translate(298,124)"/>
<path d="M0 0 C0.66 0 1.32 0 2 0 C2.64974205 2.68660783 3.29488418 5.37418674 3.9375 8.0625 C4.21110352 9.19075195 4.21110352 9.19075195 4.49023438 10.34179688 C6.58400787 19.13564554 7.13213796 27.41134868 7.0625 36.4375 C7.05798828 37.55060547 7.05347656 38.66371094 7.04882812 39.81054688 C7.03711193 42.54042101 7.02070699 45.27018174 7 48 C6.67 48 6.34 48 6 48 C5.92483154 47.14994385 5.84966309 46.2998877 5.7722168 45.42407227 C3.77511645 22.59160453 3.77511645 22.59160453 0 0 Z " fill="#353535" transform="translate(335,182)"/>
<path d="M0 0 C-1.55962531 6.89785504 -3.26129039 13.54188233 -8 19 C-8.66 19 -9.32 19 -10 19 C-10.2475 19.58265625 -10.495 20.1653125 -10.75 20.765625 C-12.18525446 23.33114236 -13.77663013 24.83724798 -16 26.75 C-17.051875 27.67039062 -17.051875 27.67039062 -18.125 28.609375 C-20 30 -20 30 -22 30 C-22 29.34 -22 28.68 -22 28 C-20.66419558 26.92838801 -19.2792564 25.91769878 -17.875 24.9375 C-9.93907435 18.9076915 -6.27806627 11.23643378 -3 2 C-5.97 2 -8.94 2 -12 2 C-12 1.67 -12 1.34 -12 1 C-7.9472484 0.01751476 -4.16138263 -0.08159574 0 0 Z " fill="#3B3B3B" transform="translate(302,365)"/>
<path d="M0 0 C7.61624347 -0.42975669 13.51494101 -0.23240538 20.46484375 2.98828125 C24.25902552 4.50244624 28.12303363 4.91880715 32.1484375 5.49609375 C36.03058517 6.18211711 39.37688271 7.46714268 43 9 C39.96491628 9.94395416 37.87344803 10.0005092 34.76953125 9.36328125 C33.97095703 9.19997314 33.17238281 9.03666504 32.34960938 8.8684082 C31.51236328 8.6849585 30.67511719 8.50150879 29.8125 8.3125 C28.95333984 8.12969482 28.09417969 7.94688965 27.20898438 7.75854492 C22.14262002 6.63038172 17.69151746 5.1990393 13.06640625 2.81640625 C8.92285526 1.17935113 4.41212626 1.1649393 0 1 C0 0.67 0 0.34 0 0 Z " fill="#343435" transform="translate(245,156)"/>
<path d="M0 0 C5.78722956 0.55116472 9.59996481 2.58893016 13.69921875 6.70703125 C15.52505485 9.92554713 14.97780216 12.22937769 14.625 15.875 C14.35289362 21.057614 14.35289362 21.057614 16.9921875 25.25 C19.27805706 26.73118651 21.48784855 27.95327023 24 29 C23.34 29.33 22.68 29.66 22 30 C20.125 29.109375 20.125 29.109375 18 27.75 C17.29875 27.31171875 16.5975 26.8734375 15.875 26.421875 C14 25 14 25 12 22 C11.91015625 19.4765625 11.91015625 19.4765625 12.0625 16.625 C12.12695897 12.17733084 12.11268332 9.42395166 9 6 C6.05763218 3.78831775 6.05763218 3.78831775 3 2 C2.01 1.34 1.02 0.68 0 0 Z " fill="#414142" transform="translate(250,101)"/>
<path d="M0 0 C0.66 0.33 1.32 0.66 2 1 C0.625 2.5 0.625 2.5 -1 4 C-1.66 4 -2.32 4 -3 4 C-3.33 4.99 -3.66 5.98 -4 7 C-4.7425 7.721875 -5.485 8.44375 -6.25 9.1875 C-12.74125209 15.82628055 -15.07300427 21.99942439 -15.5625 31.1875 C-15.60568359 31.93708984 -15.64886719 32.68667969 -15.69335938 33.45898438 C-15.79922685 35.30578375 -15.9000976 37.15286834 -16 39 C-16.33 39 -16.66 39 -17 39 C-17.49645455 26.98855789 -17.62980318 18.35221402 -9.625 8.75 C-6.63400217 5.51998074 -3.46779465 2.70657144 0 0 Z " fill="#323232" transform="translate(107,289)"/>
<path d="M0 0 C7.53696859 7.09130436 14.60665518 17.7670375 17 28 C16.58984375 30.27734375 16.58984375 30.27734375 16 32 C16 31.01 16 30.02 16 29 C15.34 29 14.68 29 14 29 C13.67128906 27.98292969 13.67128906 27.98292969 13.3359375 26.9453125 C10.57490276 18.84178776 7.02257644 11.73844981 1.625 5.0625 C0 3 0 3 0 0 Z " fill="#5B5B5B" transform="translate(321,153)"/>
<path d="M0 0 C-1.57492676 0.52497559 -3.14986493 1.04991696 -4.72485352 1.57470703 C-6.08491194 2.0282238 -7.44477263 2.48233395 -8.80444336 2.93701172 C-12.01784371 4.0107825 -15.2330839 5.07532429 -18.45703125 6.1171875 C-22.65401673 7.47922807 -26.57391002 8.77934626 -30.5 10.8125 C-33 12 -33 12 -35.375 11.6875 C-35.91125 11.460625 -36.4475 11.23375 -37 11 C-31.50451457 7.54569487 -26.16837849 5.6235316 -19.9375 3.875 C-18.19640236 3.3731315 -16.45551153 2.87054488 -14.71484375 2.3671875 C-13.89870605 2.13612305 -13.08256836 1.90505859 -12.24169922 1.66699219 C-10.34756153 1.10341299 -8.48322624 0.44109611 -6.62890625 -0.2421875 C-3.89496672 -1.03027705 -2.62132032 -1.00820012 0 0 Z " fill="#4B4B50" transform="translate(226,130)"/>
<path d="M0 0 C-3.83239333 2.41298839 -7.97388612 2.67613247 -12.375 3.125 C-13.16632324 3.20991699 -13.95764648 3.29483398 -14.77294922 3.38232422 C-21.86619282 4.09065094 -28.87197279 4.20627731 -36 4 C-33.59031437 1.59031437 -32.73035816 1.65842752 -29.4140625 1.3671875 C-28.02501709 1.24126221 -28.02501709 1.24126221 -26.60791016 1.11279297 C-25.6235498 1.03432129 -24.63918945 0.95584961 -23.625 0.875 C-22.63161621 0.79008301 -21.63823242 0.70516602 -20.61474609 0.61767578 C-13.72527879 0.05846212 -6.9127084 -0.26250791 0 0 Z " fill="#3F3F3F" transform="translate(304,282)"/>
<path d="M0 0 C1.28876107 3.8662832 0.36663724 6.62405839 -0.625 10.4375 C-0.80450195 11.14455078 -0.98400391 11.85160156 -1.16894531 12.58007812 C-2.86123484 18.97445321 -5.22535193 24.99584351 -8 31 C-9.34679191 26.95962428 -8.00341074 24.24284556 -6.6875 20.375 C-5.19637745 15.83841896 -3.75801048 11.37630197 -2.8125 6.6875 C-2 3 -2 3 0 0 Z " fill="#3C3C3C" transform="translate(155,240)"/>
<path d="M0 0 C-0.58007812 0.37511719 -1.16015625 0.75023437 -1.7578125 1.13671875 C-10.40793933 6.80355101 -16.31031154 12.33080013 -22 21 C-22.80859375 19.3671875 -22.80859375 19.3671875 -23 17 C-21.42348395 14.81900092 -19.92376522 13.03470297 -18.0625 11.125 C-17.55904053 10.59559814 -17.05558105 10.06619629 -16.53686523 9.52075195 C-5.43310997 -1.94636687 -5.43310997 -1.94636687 0 0 Z " fill="#3C3C3F" transform="translate(192,143)"/>
<path d="M0 0 C0 0.33 0 0.66 0 1 C-1.01707031 1.02126953 -1.01707031 1.02126953 -2.0546875 1.04296875 C-8.5659958 1.37665075 -13.02710502 2.7383544 -18.72265625 5.8515625 C-24.15185506 8.5894432 -29.18405871 8.06823411 -35 7 C-35 6.67 -35 6.34 -35 6 C-33.99839844 5.90203125 -32.99679688 5.8040625 -31.96484375 5.703125 C-23.74047773 5.11842983 -23.74047773 5.11842983 -16.375 1.875 C-11.14570196 -1.03016558 -5.85597149 -0.317015 0 0 Z " fill="#4E4E50" transform="translate(256,155)"/>
<path d="M0 0 C0 0.99 0 1.98 0 3 C-4.67686099 5.19526128 -8.74881279 6.79803126 -14 7 C-15.703125 5.5078125 -15.703125 5.5078125 -17 4 C-14.73050898 3.32844651 -12.4596039 2.6626037 -10.1875 2 C-8.92292969 1.62875 -7.65835937 1.2575 -6.35546875 0.875 C-3 0 -3 0 0 0 Z " fill="#C1C1C4" transform="translate(343,269)"/>
<path d="M0 0 C0.33 0 0.66 0 1 0 C1.39489805 12.37347214 0.41112809 23.85824781 -2 36 C-2.33 36 -2.66 36 -3 36 C-3.05451714 33.95863605 -3.09302485 31.91684144 -3.125 29.875 C-3.14820313 28.73804688 -3.17140625 27.60109375 -3.1953125 26.4296875 C-3 23 -3 23 -2.03125 20.125 C-0.70434101 16.10406367 -0.5461308 12.33196541 -0.375 8.125 C-0.33632812 7.34125 -0.29765625 6.5575 -0.2578125 5.75 C-0.16433378 3.83368633 -0.08111505 1.91687681 0 0 Z " fill="#686868" transform="translate(143,216)"/>
<path d="M0 0 C2.54184599 3.09764322 4.05849147 6.16919843 5.5625 9.875 C5.97628906 10.88304687 6.39007813 11.89109375 6.81640625 12.9296875 C8.72939971 17.89210617 10.2700747 22.00723611 10.125 27.375 C10.10695313 28.24898437 10.08890625 29.12296875 10.0703125 30.0234375 C10.03550781 31.00183594 10.03550781 31.00183594 10 32 C9.67 32 9.34 32 9 32 C8.81824219 30.75283203 8.81824219 30.75283203 8.6328125 29.48046875 C8.46523438 28.39378906 8.29765625 27.30710938 8.125 26.1875 C7.96257812 25.10855469 7.80015625 24.02960938 7.6328125 22.91796875 C7.14867662 19.82678207 7.14867662 19.82678207 5 17 C4.46034467 15.53483579 3.96271523 14.0537507 3.5 12.5625 C2.77167304 10.22314546 2.06753856 8.12566997 0.90625 5.96484375 C0 4 0 4 0 0 Z " fill="#484849" transform="translate(342,160)"/>
<path d="M0 0 C4.41176131 -0.37546905 7.19849635 -0.09038501 11.1875 1.875 C15.85485526 4.16039465 20.36730678 4.86589536 25.49609375 5.5078125 C28 6 28 6 30 8 C15.89433962 7.60377358 15.89433962 7.60377358 9.8203125 3.98828125 C6.71806863 2.3040158 3.43433653 1.73592926 0 1 C0 0.67 0 0.34 0 0 Z " fill="#4C4D4B" transform="translate(254,145)"/>
<path d="M0 0 C2.0625 0.4375 2.0625 0.4375 4 1 C4 1.66 4 2.32 4 3 C4.66 3 5.32 3 6 3 C6 4.65 6 6.3 6 8 C4.1875 8.625 4.1875 8.625 2 9 C1.01 8.34 0.02 7.68 -1 7 C-1.25 3.9375 -1.25 3.9375 -1 1 C-0.67 0.67 -0.34 0.34 0 0 Z " fill="#E1E1E3" transform="translate(176,191)"/>
<path d="M0 0 C-1.63707833 1.98510058 -2.50096147 2.91847304 -5.0847168 3.34057617 C-5.86500244 3.32486572 -6.64528809 3.30915527 -7.44921875 3.29296875 C-8.29677734 3.28330078 -9.14433594 3.27363281 -10.01757812 3.26367188 C-10.89865234 3.23853516 -11.77972656 3.21339844 -12.6875 3.1875 C-13.58017578 3.17396484 -14.47285156 3.16042969 -15.39257812 3.14648438 C-17.59566166 3.11114079 -19.79752582 3.06180493 -22 3 C-22 2.34 -22 1.68 -22 1 C-14.65623924 0.42240084 -7.36901413 -0.14738028 0 0 Z " fill="#E1E1E1" transform="translate(278,281)"/>
<path d="M0 0 C1.3609623 2.7219246 0.70366248 4.1831957 0.0625 7.125 C-0.13214844 8.03507813 -0.32679688 8.94515625 -0.52734375 9.8828125 C-0.68332031 10.58148438 -0.83929688 11.28015625 -1 12 C4.28199593 13.19988045 4.28199593 13.19988045 9 11 C8.125 14.875 8.125 14.875 7 16 C3.5625 16.1875 3.5625 16.1875 0 16 C-2.87105327 13.12894673 -2.80272795 11.01119831 -3 7 C-2.23466642 4.46851199 -1.21034404 2.37227431 0 0 Z " fill="#222223" transform="translate(175,186)"/>
<path d="M0 0 C0.33 0.66 0.66 1.32 1 2 C-7.62539753 14.50025886 -7.62539753 14.50025886 -13 18 C-13.99 17.67 -14.98 17.34 -16 17 C-15.27296875 16.41605469 -15.27296875 16.41605469 -14.53125 15.8203125 C-8.88726361 11.10975463 -4.42764054 5.85249295 0 0 Z " fill="#515151" transform="translate(306,383)"/>
<path d="M0 0 C5.66094155 4.44788264 7.88748839 11.76177207 8.8125 18.6875 C9.11959515 22.60994263 8.73851515 26.14330978 8 30 C7.67 30 7.34 30 7 30 C6.97421875 29.10539062 6.9484375 28.21078125 6.921875 27.2890625 C6.49064666 18.09605827 5.14444131 10.71666197 0 3 C0 2.01 0 1.02 0 0 Z " fill="#2C2C2E" transform="translate(404,298)"/>
<path d="M0 0 C0.66 0.33 1.32 0.66 2 1 C1.2575 1.99 0.515 2.98 -0.25 4 C-4.26838885 10.31951751 -5.43078705 17.77636049 -7 25 C-7.33 25 -7.66 25 -8 25 C-8.38690503 15.71427917 -5.90142012 8.80470033 -1 1 C-0.67 0.67 -0.34 0.34 0 0 Z " fill="#595959" transform="translate(182,173)"/>
<path d="M0 0 C5.61 0 11.22 0 17 0 C16.67 0.99 16.34 1.98 16 3 C10.555 3.495 10.555 3.495 5 4 C5.66 3.34 6.32 2.68 7 2 C4.69 1.67 2.38 1.34 0 1 C0 0.67 0 0.34 0 0 Z " fill="#CFCFCF" transform="translate(270,280)"/>
<path d="M0 0 C6.73034551 3.15853934 11.1579758 7.42206431 14.46875 14.0703125 C15.10826447 16.39325478 14.76170685 17.74494682 14 20 C13.74347656 19.38253906 13.48695313 18.76507813 13.22265625 18.12890625 C10.35263788 11.78007774 6.89283303 7.44864926 1.79296875 2.71484375 C1.20128906 2.14894531 0.60960937 1.58304688 0 1 C0 0.67 0 0.34 0 0 Z " fill="#29292C" transform="translate(297,171)"/>
<path d="M0 0 C4.43840096 0.51794625 6.78925391 2.09448928 10.1875 4.9375 C11.04730469 5.64777344 11.90710938 6.35804688 12.79296875 7.08984375 C15 9 15 9 17 11 C16.67 11.99 16.34 12.98 16 14 C15.5153125 13.48050781 15.030625 12.96101562 14.53125 12.42578125 C10.47211164 8.20271615 6.57069073 4.80452647 1.46875 1.91015625 C0.9840625 1.60980469 0.499375 1.30945313 0 1 C0 0.67 0 0.34 0 0 Z " fill="#313135" transform="translate(304,141)"/>
<path d="M0 0 C-0.44850658 1.81495662 -0.90909571 3.62693134 -1.375 5.4375 C-1.63023437 6.44683594 -1.88546875 7.45617187 -2.1484375 8.49609375 C-3 11 -3 11 -5 12 C-4.54177532 8.53058454 -4.10868317 5.32604951 -3 2 C-5.97 2 -8.94 2 -12 2 C-12 1.67 -12 1.34 -12 1 C-7.9472484 0.01751476 -4.16138263 -0.08159574 0 0 Z " fill="#474747" transform="translate(302,365)"/>
<path d="M0 0 C5.45769811 -0.11138159 10.61509359 0.08342019 16 1 C16 1.66 16 2.32 16 3 C13.89646505 3.0810206 11.79204048 3.13919907 9.6875 3.1875 C8.51574219 3.22230469 7.34398437 3.25710938 6.13671875 3.29296875 C3 3 3 3 1.08203125 1.48828125 C0.72496094 0.99714844 0.36789063 0.50601562 0 0 Z " fill="#DFDEE3" transform="translate(208,280)"/>
<path d="M0 0 C1.92814511 2.89221766 3.53132132 5.78772874 5.125 8.875 C5.66382813 9.90367187 6.20265625 10.93234375 6.7578125 11.9921875 C7.98505057 14.9638017 8.26885505 16.83218617 8 20 C5.43510286 16.87097592 3.86465821 13.72890861 2.3125 10 C1.87550781 8.96875 1.43851562 7.9375 0.98828125 6.875 C0 4 0 4 0 0 Z " fill="#515152" transform="translate(358,246)"/>
<path d="M0 0 C1.31148244 3.93444732 0.33242737 5.35081977 -1.25 9.125 C-1.68828125 10.20007813 -2.1265625 11.27515625 -2.578125 12.3828125 C-4 15 -4 15 -7 16 C-5.26017005 10.18738629 -3.1889511 5.16830006 0 0 Z " fill="#575758" transform="translate(168,162)"/>
<path d="M0 0 C3.30653354 1.41088411 5.1547817 3.05531369 7.4375 5.8125 C10.16564361 9.0404113 12.96702285 12.05893125 16 15 C11.36026982 13.5750006 8.48920456 10.91190831 5.1875 7.5 C4.68541016 7.00113281 4.18332031 6.50226563 3.66601562 5.98828125 C0 2.26740009 0 2.26740009 0 0 Z " fill="#353437" transform="translate(357,276)"/>
<path d="M0 0 C0.84304688 1.07314453 0.84304688 1.07314453 1.703125 2.16796875 C3.97236686 4.96592853 6.33051154 7.64394655 8.75 10.3125 C9.54921875 11.19550781 10.3484375 12.07851563 11.171875 12.98828125 C11.77515625 13.65214844 12.3784375 14.31601562 13 15 C12.67 15.66 12.34 16.32 12 17 C10.55620057 15.61068357 9.12022488 14.21323422 7.6875 12.8125 C6.88699219 12.03519531 6.08648437 11.25789063 5.26171875 10.45703125 C2.1962375 7.12682796 0 4.61757265 0 0 Z " fill="#383A38" transform="translate(366,263)"/>
<path d="M0 0 C1.77835699 2.66753549 2.91567428 5.20540725 4.13671875 8.1484375 C5.46272108 10.9924425 7.1900497 13.44110475 9 16 C6.28814599 15.64653185 5.25429169 15.31786462 3.515625 13.14453125 C1.05585419 8.61217577 -0.6814647 5.31542464 0 0 Z " fill="#484849" transform="translate(91,325)"/>
<path d="M0 0 C7.06536889 1.25353319 12.71456473 3.56203749 19 7 C16.36575134 8.003813 15.27298826 8.10520035 12.59765625 7.07421875 C11.76105469 6.61660156 10.92445313 6.15898437 10.0625 5.6875 C6.76008426 3.90613509 3.50866167 2.33693191 0 1 C0 0.67 0 0.34 0 0 Z " fill="#373735" transform="translate(298,124)"/>
<path d="M0 0 C0.66 0.33 1.32 0.66 2 1 C0.625 2.5 0.625 2.5 -1 4 C-1.66 4 -2.32 4 -3 4 C-3.33 4.99 -3.66 5.98 -4 7 C-8.33333333 11.66666667 -8.33333333 11.66666667 -11 13 C-10.53730015 8.70772058 -8.09840542 6.97077935 -4.9375 4.25 C-4.01839844 3.45078125 -3.09929687 2.6515625 -2.15234375 1.828125 C-1.44207031 1.22484375 -0.73179688 0.6215625 0 0 Z " fill="#414140" transform="translate(107,289)"/>
<path d="M0 0 C-2.67550292 2.67550292 -4.94879894 2.83209389 -8.625 3.625 C-9.81351562 3.88539063 -11.00203125 4.14578125 -12.2265625 4.4140625 C-13.14179688 4.60742188 -14.05703125 4.80078125 -15 5 C-15 4.34 -15 3.68 -15 3 C-9.63560356 0.31780178 -5.98993047 -0.3152595 0 0 Z " fill="#3C3C3C" transform="translate(329,360)"/>
<path d="M0 0 C2.97 0 5.94 0 9 0 C9 0.66 9 1.32 9 2 C6.11788698 2.96070434 4.30149956 3.10581883 1.3125 3.0625 C0.10013672 3.04896484 0.10013672 3.04896484 -1.13671875 3.03515625 C-2.05904297 3.01775391 -2.05904297 3.01775391 -3 3 C-2.01 2.67 -1.02 2.34 0 2 C0 1.34 0 0.68 0 0 Z " fill="#DEDEDF" transform="translate(298,278)"/>
<path d="M0 0 C0 3.83764027 -1.26535335 5.11486085 -3.5 8.1875 C-4.1496875 9.08855469 -4.799375 9.98960937 -5.46875 10.91796875 C-5.9740625 11.60503906 -6.479375 12.29210937 -7 13 C-7.74609375 11.296875 -7.74609375 11.296875 -8 9 C-6.34765625 6.640625 -6.34765625 6.640625 -4.0625 4.25 C-3.31097656 3.45078125 -2.55945313 2.6515625 -1.78515625 1.828125 C-1.19605469 1.22484375 -0.60695312 0.6215625 0 0 Z " fill="#444346" transform="translate(177,151)"/>
<path d="M0 0 C0.64453125 1.765625 0.64453125 1.765625 1 4 C0.07421875 5.921875 0.07421875 5.921875 -1.3125 7.75 C-1.98732422 8.67039062 -1.98732422 8.67039062 -2.67578125 9.609375 C-3.11277344 10.06828125 -3.54976562 10.5271875 -4 11 C-4.66 11 -5.32 11 -6 11 C-4.54955729 6.89041233 -2.48889248 3.56741255 0 0 Z " fill="#515054" transform="translate(145,269)"/>
<path d="M0 0 C4.00972202 3.67557852 6.45335415 7.18966896 9 12 C4.58848955 10.52949652 2.14860084 6.95377777 0 3 C0 2.01 0 1.02 0 0 Z " fill="#4A4A4C" transform="translate(321,153)"/>
<path d="M0 0 C6.52307692 0.61538462 6.52307692 0.61538462 8.9375 2.5625 C9.288125 3.036875 9.63875 3.51125 10 4 C3.375 4.25 3.375 4.25 0 2 C0 1.34 0 0.68 0 0 Z " fill="#CECDCE" transform="translate(157,270)"/>
<path d="M0 0 C1.06528748 2.73019786 1.07998186 3.79298812 0.00390625 6.578125 C-0.47175781 7.45984375 -0.94742188 8.3415625 -1.4375 9.25 C-1.91058594 10.14203125 -2.38367188 11.0340625 -2.87109375 11.953125 C-3.24363281 12.62859375 -3.61617187 13.3040625 -4 14 C-5.06528748 11.26980214 -5.07998186 10.20701188 -4.00390625 7.421875 C-3.52824219 6.54015625 -3.05257812 5.6584375 -2.5625 4.75 C-2.08941406 3.85796875 -1.61632812 2.9659375 -1.12890625 2.046875 C-0.75636719 1.37140625 -0.38382813 0.6959375 0 0 Z " fill="#4E4E4E" transform="translate(155,158)"/>
<path d="M0 0 C-1.5830577 4.2742558 -4.50568404 6.26531794 -8 9 C-8 6 -8 6 -6.7578125 4.39453125 C-5.94957031 3.61142578 -5.94957031 3.61142578 -5.125 2.8125 C-4.59132812 2.28269531 -4.05765625 1.75289063 -3.5078125 1.20703125 C-2 0 -2 0 0 0 Z " fill="#39393C" transform="translate(140,280)"/>
<path d="M0 0 C3.93673644 1.31224548 6.22719294 2.91910327 9 6 C8.67 6.99 8.34 7.98 8 9 C5.06799526 6.14723863 2.35684596 3.34920216 0 0 Z " fill="#515151" transform="translate(395,291)"/>
<path d="M0 0 C0.33 0.66 0.66 1.32 1 2 C-0.98 4.97 -2.96 7.94 -5 11 C-5.66 10.34 -6.32 9.68 -7 9 C-4.69 6.03 -2.38 3.06 0 0 Z " fill="#4A4A4A" transform="translate(306,383)"/>
<path d="M0 0 C0.99 0.33 1.98 0.66 3 1 C-0.11016455 4.28788824 -3.01618925 6.83735988 -7 9 C-5.44499019 5.18315774 -2.96404505 2.80804268 0 0 Z " fill="#454548" transform="translate(112,302)"/>
<path d="M0 0 C6 7.71428571 6 7.71428571 6 12 C3.34930567 9.52601863 1.28384156 7.42357749 0 4 C0 2.68 0 1.36 0 0 Z " fill="#58585A" transform="translate(352,265)"/>
<path d="M0 0 C0 0.66 0 1.32 0 2 C-5.41538462 5.07692308 -5.41538462 5.07692308 -8.375 4.6875 C-8.91125 4.460625 -9.4475 4.23375 -10 4 C-3.375 0 -3.375 0 0 0 Z " fill="#59595B" transform="translate(199,137)"/>
<path d="M0 0 C0.66 0.33 1.32 0.66 2 1 C0.90653119 2.34212062 -0.2001575 3.67347975 -1.3125 5 C-2.23482422 6.11375 -2.23482422 6.11375 -3.17578125 7.25 C-5 9 -5 9 -8 9 C-8 8.34 -8 7.68 -8 7 C-6.25 5.2734375 -6.25 5.2734375 -4 3.375 C-3.2575 2.74335938 -2.515 2.11171875 -1.75 1.4609375 C-1.1725 0.97882813 -0.595 0.49671875 0 0 Z " fill="#5C5C59" transform="translate(126,274)"/>
<path d="M0 0 C0.66 0.33 1.32 0.66 2 1 C-0.31 3.31 -2.62 5.62 -5 8 C-5.99 7.67 -6.98 7.34 -8 7 C-5.36 4.69 -2.72 2.38 0 0 Z " fill="#C0C0BF" transform="translate(176,136)"/>
<path d="M0 0 C-0.33 1.32 -0.66 2.64 -1 4 C-3.31 3.67 -5.62 3.34 -8 3 C-5.53387212 -0.1151089 -3.89156016 -0.31553191 0 0 Z " fill="#B2AFB2" transform="translate(170,272)"/>
<path d="M0 0 C1.64846769 0.44876616 3.29373455 0.90930488 4.9375 1.375 C5.85402344 1.63023437 6.77054687 1.88546875 7.71484375 2.1484375 C10 3 10 3 11 5 C9.53890937 4.74445946 8.08111904 4.46999628 6.625 4.1875 C5.81289063 4.03667969 5.00078125 3.88585937 4.1640625 3.73046875 C2 3 2 3 0 0 Z " fill="#6C6C6D" transform="translate(298,137)"/>
<path d="M0 0 C0.66 0 1.32 0 2 0 C2 0.99 2 1.98 2 3 C-0.5 5.1875 -0.5 5.1875 -3 7 C-3.66 6.67 -4.32 6.34 -5 6 C-3.38405168 3.95880212 -1.7143618 1.95927063 0 0 Z " fill="#C3C3C3" transform="translate(101,296)"/>
<path d="M0 0 C0.6875 1.8125 0.6875 1.8125 1 4 C-0.4375 5.75 -0.4375 5.75 -2 7 C-2.99 6.67 -3.98 6.34 -5 6 C-3.35 4.02 -1.7 2.04 0 0 Z " fill="#C2C3C2" transform="translate(130,271)"/>
<path d="M0 0 C2.97 0.495 2.97 0.495 6 1 C6 1.66 6 2.32 6 3 C3.69 3 1.38 3 -1 3 C-0.67 2.01 -0.34 1.02 0 0 Z " fill="#D4D2D6" transform="translate(170,273)"/>
<path d="M0 0 C0.33 0.99 0.66 1.98 1 3 C0 4 0 4 -3.5625 4.0625 C-4.696875 4.041875 -5.83125 4.02125 -7 4 C-7 3.01 -7 2.02 -7 1 C-5.824375 1.309375 -5.824375 1.309375 -4.625 1.625 C-3.75875 1.74875 -2.8925 1.8725 -2 2 C-1.34 1.34 -0.68 0.68 0 0 Z " fill="#605F68" transform="translate(183,197)"/>
</svg>
