<svg width="1280" height="832" viewBox="0 0 1280 832" fill="none" xmlns="http://www.w3.org/2000/svg">
<path d="M630.752 -603.248C697.817 -586.187 739.88 -544.124 756.942 -477.059C774.003 -409.993 816.066 -367.93 883.131 -350.869C950.197 -333.808 992.26 -291.745 1009.32 -224.679C1026.38 -157.614 1068.45 -115.55 1135.51 -98.4894C1202.58 -81.4284 1244.64 -39.3651 1261.7 27.7003C1278.76 94.7658 1320.82 136.829 1387.89 153.89C1454.96 170.951 1497.02 213.014 1514.08 280.08C1531.14 347.145 1573.2 389.208 1640.27 406.27C1707.34 423.331 1749.4 465.394 1766.46 532.459C1783.52 599.525 1825.58 641.588 1892.65 658.649" stroke="#AAAAAA"/>
<path d="M602.752 -591.248C669.817 -574.187 711.88 -532.124 728.942 -465.059C746.003 -397.993 788.066 -355.93 855.131 -338.869C922.197 -321.808 964.26 -279.745 981.321 -212.679C998.382 -145.614 1040.45 -103.55 1107.51 -86.4894C1174.58 -69.4284 1216.64 -27.3651 1233.7 39.7003C1250.76 106.766 1292.82 148.829 1359.89 165.89C1426.96 182.951 1469.02 225.014 1486.08 292.08C1503.14 359.145 1545.2 401.208 1612.27 418.27C1679.34 435.331 1721.4 477.394 1738.46 544.459C1755.52 611.525 1797.58 653.588 1864.65 670.649" stroke="#AAAAAA"/>
<path d="M574.752 -579.248C641.817 -562.187 683.88 -520.124 700.942 -453.059C718.003 -385.993 760.066 -343.93 827.131 -326.869C894.197 -309.808 936.26 -267.745 953.321 -200.679C970.382 -133.614 1012.45 -91.5505 1079.51 -74.4894C1146.58 -57.4284 1188.64 -15.3651 1205.7 51.7003C1222.76 118.766 1264.82 160.829 1331.89 177.89C1398.96 194.951 1441.02 237.014 1458.08 304.08C1475.14 371.145 1517.2 413.208 1584.27 430.27C1651.34 447.331 1693.4 489.394 1710.46 556.459C1727.52 623.525 1769.58 665.588 1836.65 682.649" stroke="#AAAAAA"/>
<path d="M546.752 -567.248C613.817 -550.187 655.88 -508.124 672.942 -441.059C690.003 -373.993 732.066 -331.93 799.131 -314.869C866.197 -297.808 908.26 -255.745 925.321 -188.679C942.382 -121.614 984.445 -79.5505 1051.51 -62.4894C1118.58 -45.4284 1160.64 -3.36511 1177.7 63.7003C1194.76 130.766 1236.82 172.829 1303.89 189.89C1370.96 206.951 1413.02 249.014 1430.08 316.08C1447.14 383.145 1489.2 425.208 1556.27 442.27C1623.34 459.331 1665.4 501.394 1682.46 568.459C1699.52 635.525 1741.58 677.588 1808.65 694.649" stroke="#AAAAAA"/>
<path d="M518.752 -555.248C585.817 -538.187 627.88 -496.124 644.942 -429.059C662.003 -361.993 704.066 -319.93 771.131 -302.869C838.197 -285.808 880.26 -243.745 897.321 -176.679C914.382 -109.614 956.445 -67.5505 1023.51 -50.4894C1090.58 -33.4284 1132.64 8.63489 1149.7 75.7003C1166.76 142.766 1208.82 184.829 1275.89 201.89C1342.96 218.951 1385.02 261.014 1402.08 328.08C1419.14 395.145 1461.2 437.208 1528.27 454.27C1595.34 471.331 1637.4 513.394 1654.46 580.459C1671.52 647.525 1713.58 689.588 1780.65 706.649" stroke="#AAAAAA"/>
<path d="M490.752 -543.248C557.817 -526.187 599.88 -484.124 616.942 -417.059C634.003 -349.993 676.066 -307.93 743.131 -290.869C810.197 -273.808 852.26 -231.745 869.321 -164.679C886.382 -97.6137 928.445 -55.5505 995.511 -38.4894C1062.58 -21.4284 1104.64 20.6349 1121.7 87.7003C1138.76 154.766 1180.82 196.829 1247.89 213.89C1314.96 230.951 1357.02 273.014 1374.08 340.08C1391.14 407.145 1433.2 449.208 1500.27 466.27C1567.34 483.331 1609.4 525.394 1626.46 592.459C1643.52 659.525 1685.58 701.588 1752.65 718.649" stroke="#AAAAAA"/>
<path d="M462.752 -531.248C529.817 -514.187 571.88 -472.124 588.942 -405.059C606.003 -337.993 648.066 -295.93 715.131 -278.869C782.197 -261.808 824.26 -219.745 841.321 -152.679C858.382 -85.6137 900.445 -43.5505 967.511 -26.4894C1034.58 -9.42836 1076.64 32.6349 1093.7 99.7003C1110.76 166.766 1152.82 208.829 1219.89 225.89C1286.96 242.951 1329.02 285.014 1346.08 352.08C1363.14 419.145 1405.2 461.208 1472.27 478.27C1539.34 495.331 1581.4 537.394 1598.46 604.459C1615.52 671.525 1657.58 713.588 1724.65 730.649" stroke="#AAAAAA"/>
<path d="M434.752 -519.248C501.817 -502.187 543.88 -460.124 560.942 -393.059C578.003 -325.993 620.066 -283.93 687.131 -266.869C754.197 -249.808 796.26 -207.745 813.321 -140.679C830.382 -73.6137 872.445 -31.5505 939.511 -14.4894C1006.58 2.57164 1048.64 44.6349 1065.7 111.7C1082.76 178.766 1124.82 220.829 1191.89 237.89C1258.96 254.951 1301.02 297.014 1318.08 364.08C1335.14 431.145 1377.2 473.208 1444.27 490.27C1511.34 507.331 1553.4 549.394 1570.46 616.459C1587.52 683.525 1629.58 725.588 1696.65 742.649" stroke="#AAAAAA"/>
<path d="M406.752 -507.248C473.817 -490.187 515.88 -448.124 532.942 -381.059C550.003 -313.993 592.066 -271.93 659.131 -254.869C726.197 -237.808 768.26 -195.745 785.321 -128.679C802.382 -61.6137 844.445 -19.5505 911.511 -2.48941C978.576 14.5716 1020.64 56.6349 1037.7 123.7C1054.76 190.766 1096.82 232.829 1163.89 249.89C1230.96 266.951 1273.02 309.014 1290.08 376.08C1307.14 443.145 1349.2 485.208 1416.27 502.27C1483.34 519.331 1525.4 561.394 1542.46 628.459C1559.52 695.525 1601.58 737.588 1668.65 754.649" stroke="#AAAAAA"/>
<path d="M378.752 -495.248C445.817 -478.187 487.88 -436.124 504.942 -369.059C522.003 -301.993 564.066 -259.93 631.131 -242.869C698.197 -225.808 740.26 -183.745 757.321 -116.679C774.382 -49.6137 816.445 -7.55045 883.511 9.51059C950.576 26.5716 992.639 68.6349 1009.7 135.7C1026.76 202.766 1068.82 244.829 1135.89 261.89C1202.96 278.951 1245.02 321.014 1262.08 388.08C1279.14 455.145 1321.2 497.208 1388.27 514.27C1455.34 531.331 1497.4 573.394 1514.46 640.459C1531.52 707.525 1573.58 749.588 1640.65 766.649" stroke="#AAAAAA"/>
<path d="M350.752 -483.248C417.817 -466.187 459.88 -424.124 476.942 -357.059C494.003 -289.993 536.066 -247.93 603.131 -230.869C670.197 -213.808 712.26 -171.745 729.321 -104.679C746.382 -37.6137 788.445 4.44955 855.511 21.5106C922.576 38.5716 964.639 80.6349 981.7 147.7C998.761 214.766 1040.82 256.829 1107.89 273.89C1174.96 290.951 1217.02 333.014 1234.08 400.08C1251.14 467.145 1293.2 509.208 1360.27 526.27C1427.34 543.331 1469.4 585.394 1486.46 652.459C1503.52 719.525 1545.58 761.588 1612.65 778.649" stroke="#AAAAAA"/>
<path d="M322.752 -471.248C389.817 -454.187 431.88 -412.124 448.942 -345.059C466.003 -277.993 508.066 -235.93 575.131 -218.869C642.197 -201.808 684.26 -159.745 701.321 -92.6791C718.382 -25.6137 760.445 16.4495 827.511 33.5106C894.576 50.5716 936.639 92.6349 953.7 159.7C970.761 226.766 1012.82 268.829 1079.89 285.89C1146.96 302.951 1189.02 345.014 1206.08 412.08C1223.14 479.145 1265.2 521.208 1332.27 538.27C1399.34 555.331 1441.4 597.394 1458.46 664.459C1475.52 731.525 1517.58 773.588 1584.65 790.649" stroke="#AAAAAA"/>
<path d="M294.752 -459.248C361.817 -442.187 403.88 -400.124 420.942 -333.059C438.003 -265.993 480.066 -223.93 547.131 -206.869C614.197 -189.808 656.26 -147.745 673.321 -80.6791C690.382 -13.6137 732.445 28.4495 799.511 45.5106C866.576 62.5716 908.639 104.635 925.7 171.7C942.761 238.766 984.825 280.829 1051.89 297.89C1118.96 314.951 1161.02 357.014 1178.08 424.08C1195.14 491.145 1237.2 533.208 1304.27 550.27C1371.34 567.331 1413.4 609.394 1430.46 676.459C1447.52 743.525 1489.58 785.588 1556.65 802.649" stroke="#AAAAAA"/>
<path d="M266.752 -447.248C333.817 -430.187 375.88 -388.124 392.942 -321.059C410.003 -253.993 452.066 -211.93 519.131 -194.869C586.197 -177.808 628.26 -135.745 645.321 -68.6791C662.382 -1.6137 704.445 40.4495 771.511 57.5106C838.576 74.5716 880.639 116.635 897.7 183.7C914.761 250.766 956.825 292.829 1023.89 309.89C1090.96 326.951 1133.02 369.014 1150.08 436.08C1167.14 503.145 1209.2 545.208 1276.27 562.27C1343.34 579.331 1385.4 621.394 1402.46 688.459C1419.52 755.525 1461.58 797.588 1528.65 814.649" stroke="#AAAAAA"/>
<path d="M238.752 -435.248C305.817 -418.187 347.88 -376.124 364.942 -309.059C382.003 -241.993 424.066 -199.93 491.131 -182.869C558.197 -165.808 600.26 -123.745 617.321 -56.6791C634.382 10.3863 676.445 52.4495 743.511 69.5106C810.576 86.5716 852.639 128.635 869.7 195.7C886.761 262.766 928.825 304.829 995.89 321.89C1062.96 338.951 1105.02 381.014 1122.08 448.08C1139.14 515.145 1181.2 557.208 1248.27 574.27C1315.34 591.331 1357.4 633.394 1374.46 700.459C1391.52 767.525 1433.58 809.588 1500.65 826.649" stroke="#AAAAAA"/>
<path d="M210.752 -423.248C277.817 -406.187 319.88 -364.124 336.942 -297.059C354.003 -229.993 396.066 -187.93 463.131 -170.869C530.197 -153.808 572.26 -111.745 589.321 -44.6791C606.382 22.3863 648.445 64.4495 715.511 81.5106C782.576 98.5716 824.639 140.635 841.7 207.7C858.761 274.766 900.825 316.829 967.89 333.89C1034.96 350.951 1077.02 393.014 1094.08 460.08C1111.14 527.145 1153.2 569.208 1220.27 586.27C1287.34 603.331 1329.4 645.394 1346.46 712.459C1363.52 779.525 1405.58 821.588 1472.65 838.649" stroke="#AAAAAA"/>
<path d="M182.752 -411.248C249.817 -394.187 291.88 -352.124 308.942 -285.059C326.003 -217.993 368.066 -175.93 435.131 -158.869C502.197 -141.808 544.26 -99.7446 561.321 -32.6791C578.382 34.3863 620.445 76.4495 687.511 93.5106C754.576 110.572 796.639 152.635 813.7 219.7C830.761 286.766 872.825 328.829 939.89 345.89C1006.96 362.951 1049.02 405.014 1066.08 472.08C1083.14 539.145 1125.2 581.208 1192.27 598.27C1259.34 615.331 1301.4 657.394 1318.46 724.459C1335.52 791.525 1377.58 833.588 1444.65 850.649" stroke="#AAAAAA"/>
<path d="M154.752 -399.248C221.817 -382.187 263.88 -340.124 280.942 -273.059C298.003 -205.993 340.066 -163.93 407.131 -146.869C474.197 -129.808 516.26 -87.7446 533.321 -20.6791C550.382 46.3863 592.445 88.4495 659.511 105.511C726.576 122.572 768.639 164.635 785.7 231.7C802.761 298.766 844.825 340.829 911.89 357.89C978.956 374.951 1021.02 417.014 1038.08 484.08C1055.14 551.145 1097.2 593.208 1164.27 610.27C1231.34 627.331 1273.4 669.394 1290.46 736.459C1307.52 803.525 1349.58 845.588 1416.65 862.649" stroke="#AAAAAA"/>
<path d="M126.752 -387.248C193.817 -370.187 235.88 -328.124 252.942 -261.059C270.003 -193.993 312.066 -151.93 379.131 -134.869C446.197 -117.808 488.26 -75.7446 505.321 -8.67914C522.382 58.3863 564.445 100.45 631.511 117.511C698.576 134.572 740.639 176.635 757.7 243.7C774.761 310.766 816.825 352.829 883.89 369.89C950.956 386.951 993.019 429.014 1010.08 496.08C1027.14 563.145 1069.2 605.208 1136.27 622.27C1203.34 639.331 1245.4 681.394 1262.46 748.459C1279.52 815.525 1321.58 857.588 1388.65 874.649" stroke="#AAAAAA"/>
<path d="M98.7518 -375.248C165.817 -358.187 207.88 -316.124 224.942 -249.059C242.003 -181.993 284.066 -139.93 351.131 -122.869C418.197 -105.808 460.26 -63.7446 477.321 3.32086C494.382 70.3863 536.445 112.45 603.511 129.511C670.576 146.572 712.639 188.635 729.7 255.7C746.761 322.766 788.825 364.829 855.89 381.89C922.956 398.951 965.019 441.014 982.08 508.08C999.141 575.145 1041.2 617.208 1108.27 634.27C1175.34 651.331 1217.4 693.394 1234.46 760.459C1251.52 827.525 1293.58 869.588 1360.65 886.649" stroke="#AAAAAA"/>
<path d="M70.7516 -363.248C137.817 -346.187 179.88 -304.124 196.941 -237.059C214.002 -169.993 256.066 -127.93 323.131 -110.869C390.197 -93.8078 432.26 -51.7446 449.321 15.3209C466.382 82.3863 508.445 124.45 575.511 141.511C642.576 158.572 684.639 200.635 701.7 267.7C718.761 334.766 760.825 376.829 827.89 393.89C894.956 410.951 937.019 453.014 954.08 520.08C971.141 587.145 1013.2 629.208 1080.27 646.27C1147.33 663.331 1189.4 705.394 1206.46 772.459C1223.52 839.525 1265.58 881.588 1332.65 898.649" stroke="#AAAAAA"/>
<path d="M42.7516 -351.248C109.817 -334.187 151.88 -292.124 168.941 -225.059C186.002 -157.993 228.066 -115.93 295.131 -98.8689C362.197 -81.8078 404.26 -39.7446 421.321 27.3209C438.382 94.3863 480.445 136.45 547.511 153.511C614.576 170.572 656.639 212.635 673.7 279.7C690.761 346.766 732.825 388.829 799.89 405.89C866.956 422.951 909.019 465.014 926.08 532.08C943.141 599.145 985.204 641.208 1052.27 658.27C1119.33 675.331 1161.4 717.394 1178.46 784.459C1195.52 851.525 1237.58 893.588 1304.65 910.649" stroke="#AAAAAA"/>
<path d="M14.7516 -339.248C81.8171 -322.187 123.88 -280.124 140.941 -213.059C158.002 -145.993 200.066 -103.93 267.131 -86.8689C334.197 -69.8078 376.26 -27.7446 393.321 39.3209C410.382 106.386 452.445 148.45 519.511 165.511C586.576 182.572 628.639 224.635 645.7 291.7C662.761 358.766 704.825 400.829 771.89 417.89C838.956 434.951 881.019 477.014 898.08 544.08C915.141 611.145 957.204 653.208 1024.27 670.27C1091.33 687.331 1133.4 729.394 1150.46 796.459C1167.52 863.525 1209.58 905.588 1276.65 922.649" stroke="#AAAAAA"/>
<path d="M-13.2484 -327.248C53.8171 -310.187 95.8803 -268.124 112.941 -201.059C130.002 -133.993 172.066 -91.9299 239.131 -74.8689C306.197 -57.8078 348.26 -15.7446 365.321 51.3209C382.382 118.386 424.445 160.45 491.511 177.511C558.576 194.572 600.639 236.635 617.7 303.7C634.761 370.766 676.825 412.829 743.89 429.89C810.956 446.951 853.019 489.014 870.08 556.08C887.141 623.145 929.204 665.208 996.27 682.27C1063.33 699.331 1105.4 741.394 1122.46 808.459C1139.52 875.525 1181.58 917.588 1248.65 934.649" stroke="#AAAAAA"/>
<path d="M-41.2484 -315.248C25.8171 -298.187 67.8803 -256.124 84.9414 -189.059C102.002 -121.993 144.066 -79.9299 211.131 -62.8689C278.197 -45.8078 320.26 -3.74459 337.321 63.3209C354.382 130.386 396.445 172.45 463.511 189.511C530.576 206.572 572.639 248.635 589.7 315.7C606.761 382.766 648.825 424.829 715.89 441.89C782.956 458.951 825.019 501.014 842.08 568.08C859.141 635.145 901.204 677.208 968.27 694.27C1035.33 711.331 1077.4 753.394 1094.46 820.459C1111.52 887.525 1153.58 929.588 1220.65 946.649" stroke="#AAAAAA"/>
<path d="M-69.2484 -303.248C-2.18291 -286.187 39.8803 -244.124 56.9414 -177.059C74.0024 -109.993 116.066 -67.9299 183.131 -50.8689C250.197 -33.8078 292.26 8.25541 309.321 75.3209C326.382 142.386 368.445 184.45 435.511 201.511C502.576 218.572 544.639 260.635 561.7 327.7C578.761 394.766 620.825 436.829 687.89 453.89C754.956 470.951 797.019 513.014 814.08 580.08C831.141 647.145 873.204 689.208 940.27 706.27C1007.33 723.331 1049.4 765.394 1066.46 832.459C1083.52 899.525 1125.58 941.588 1192.65 958.649" stroke="#AAAAAA"/>
<path d="M-97.2484 -291.248C-30.1829 -274.187 11.8803 -232.124 28.9414 -165.059C46.0024 -97.9932 88.0657 -55.9299 155.131 -38.8689C222.197 -21.8078 264.26 20.2554 281.321 87.3209C298.382 154.386 340.445 196.45 407.511 213.511C474.576 230.572 516.639 272.635 533.7 339.7C550.761 406.766 592.825 448.829 659.89 465.89C726.956 482.951 769.019 525.014 786.08 592.08C803.141 659.145 845.204 701.208 912.27 718.27C979.335 735.331 1021.4 777.394 1038.46 844.459C1055.52 911.525 1097.58 953.588 1164.65 970.649" stroke="#AAAAAA"/>
<path d="M-125.248 -279.248C-58.1829 -262.187 -16.1197 -220.124 0.941383 -153.059C18.0024 -85.9932 60.0657 -43.9299 127.131 -26.8689C194.197 -9.80783 236.26 32.2554 253.321 99.3209C270.382 166.386 312.445 208.45 379.511 225.511C446.576 242.572 488.639 284.635 505.7 351.7C522.761 418.766 564.825 460.829 631.89 477.89C698.956 494.951 741.019 537.014 758.08 604.08C775.141 671.145 817.204 713.208 884.27 730.27C951.335 747.331 993.398 789.394 1010.46 856.459C1027.52 923.525 1069.58 965.588 1136.65 982.649" stroke="#AAAAAA"/>
<path d="M-153.248 -267.248C-86.1829 -250.187 -44.1197 -208.124 -27.0586 -141.059C-9.99757 -73.9932 32.0657 -31.9299 99.1311 -14.8689C166.197 2.19217 208.26 44.2554 225.321 111.321C242.382 178.386 284.445 220.45 351.511 237.511C418.576 254.572 460.639 296.635 477.7 363.7C494.761 430.766 536.825 472.829 603.89 489.89C670.956 506.951 713.019 549.014 730.08 616.08C747.141 683.145 789.204 725.208 856.27 742.27C923.335 759.331 965.398 801.394 982.459 868.459C999.52 935.525 1041.58 977.588 1108.65 994.649" stroke="#AAAAAA"/>
<path d="M-181.248 -255.248C-114.183 -238.187 -72.1197 -196.124 -55.0586 -129.059C-37.9976 -61.9932 4.06568 -19.9299 71.1311 -2.86888C138.197 14.1922 180.26 56.2554 197.321 123.321C214.382 190.386 256.445 232.45 323.511 249.511C390.576 266.572 432.639 308.635 449.7 375.7C466.761 442.766 508.825 484.829 575.89 501.89C642.956 518.951 685.019 561.014 702.08 628.08C719.141 695.145 761.204 737.208 828.27 754.27C895.335 771.331 937.398 813.394 954.459 880.459C971.52 947.525 1013.58 989.588 1080.65 1006.65" stroke="#AAAAAA"/>
<path d="M-209.248 -243.248C-142.183 -226.187 -100.12 -184.124 -83.0586 -117.059C-65.9976 -49.9932 -23.9343 -7.92992 43.1311 9.13112C110.197 26.1922 152.26 68.2554 169.321 135.321C186.382 202.386 228.445 244.45 295.511 261.511C362.576 278.572 404.639 320.635 421.7 387.7C438.761 454.766 480.825 496.829 547.89 513.89C614.956 530.951 657.019 573.014 674.08 640.08C691.141 707.145 733.204 749.208 800.27 766.27C867.335 783.331 909.398 825.394 926.459 892.459C943.52 959.525 985.584 1001.59 1052.65 1018.65" stroke="#AAAAAA"/>
<path d="M-233.248 -215.248C-166.183 -198.187 -124.12 -156.124 -107.059 -89.0586C-89.9976 -21.9932 -47.9343 20.0701 19.1311 37.1311C86.1966 54.1922 128.26 96.2554 145.321 163.321C162.382 230.386 204.445 272.45 271.511 289.511C338.576 306.572 380.639 348.635 397.7 415.7C414.761 482.766 456.825 524.829 523.89 541.89C590.956 558.951 633.019 601.014 650.08 668.08C667.141 735.145 709.204 777.208 776.27 794.27C843.335 811.331 885.398 853.394 902.459 920.459C919.52 987.525 961.584 1029.59 1028.65 1046.65" stroke="#AAAAAA"/>
<path d="M-257.248 -187.248C-190.183 -170.187 -148.12 -128.124 -131.059 -61.0586C-113.998 6.00683 -71.9343 48.0701 -4.86888 65.1311C62.1966 82.1922 104.26 124.255 121.321 191.321C138.382 258.386 180.445 300.45 247.511 317.511C314.576 334.572 356.639 376.635 373.7 443.7C390.761 510.766 432.825 552.829 499.89 569.89C566.956 586.951 609.019 629.014 626.08 696.08C643.141 763.145 685.204 805.208 752.27 822.27C819.335 839.331 861.398 881.394 878.459 948.459C895.52 1015.52 937.584 1057.59 1004.65 1074.65" stroke="#AAAAAA"/>
<path d="M-281.248 -159.248C-214.183 -142.187 -172.12 -100.124 -155.059 -33.0586C-137.998 34.0068 -95.9343 76.0701 -28.8689 93.1311C38.1966 110.192 80.2598 152.255 97.3209 219.321C114.382 286.386 156.445 328.45 223.511 345.511C290.576 362.572 332.639 404.635 349.7 471.7C366.761 538.766 408.825 580.829 475.89 597.89C542.956 614.951 585.019 657.014 602.08 724.08C619.141 791.145 661.204 833.208 728.27 850.27C795.335 867.331 837.398 909.394 854.459 976.459C871.52 1043.52 913.584 1085.59 980.649 1102.65" stroke="#AAAAAA"/>
<path d="M-305.248 -131.248C-238.183 -114.187 -196.12 -72.1241 -179.059 -5.05862C-161.998 62.0068 -119.934 104.07 -52.8689 121.131C14.1966 138.192 56.2598 180.255 73.3209 247.321C90.3819 314.386 132.445 356.45 199.511 373.511C266.576 390.572 308.639 432.635 325.7 499.7C342.761 566.766 384.825 608.829 451.89 625.89C518.956 642.951 561.019 685.014 578.08 752.08C595.141 819.145 637.204 861.208 704.27 878.27C771.335 895.331 813.398 937.394 830.459 1004.46C847.52 1071.52 889.584 1113.59 956.649 1130.65" stroke="#AAAAAA"/>
<path d="M-329.248 -103.248C-262.183 -86.1873 -220.12 -44.1241 -203.059 22.9414C-185.998 90.0068 -143.934 132.07 -76.8689 149.131C-9.80344 166.192 32.2598 208.255 49.3209 275.321C66.3819 342.386 108.445 384.45 175.511 401.511C242.576 418.572 284.639 460.635 301.7 527.7C318.761 594.766 360.825 636.829 427.89 653.89C494.956 670.951 537.019 713.014 554.08 780.08C571.141 847.145 613.204 889.208 680.27 906.27C747.335 923.331 789.398 965.394 806.459 1032.46C823.52 1099.52 865.584 1141.59 932.649 1158.65" stroke="#AAAAAA"/>
<path d="M-353.248 -75.2484C-286.183 -58.1873 -244.12 -16.1241 -227.059 50.9414C-209.998 118.007 -167.934 160.07 -100.869 177.131C-33.8034 194.192 8.25981 236.255 25.3209 303.321C42.3819 370.386 84.4451 412.45 151.511 429.511C218.576 446.572 260.639 488.635 277.7 555.7C294.761 622.766 336.825 664.829 403.89 681.89C470.956 698.951 513.019 741.014 530.08 808.08C547.141 875.145 589.204 917.208 656.27 934.27C723.335 951.331 765.398 993.394 782.459 1060.46C799.52 1127.52 841.584 1169.59 908.649 1186.65" stroke="#AAAAAA"/>
<path d="M-377.248 -47.2484C-310.183 -30.1873 -268.12 11.8759 -251.059 78.9414C-233.998 146.007 -191.934 188.07 -124.869 205.131C-57.8034 222.192 -15.7402 264.255 1.32085 331.321C18.3819 398.386 60.4451 440.45 127.511 457.511C194.576 474.572 236.639 516.635 253.7 583.7C270.761 650.766 312.825 692.829 379.89 709.89C446.956 726.951 489.019 769.014 506.08 836.08C523.141 903.145 565.204 945.208 632.27 962.27C699.335 979.331 741.398 1021.39 758.459 1088.46C775.52 1155.52 817.584 1197.59 884.649 1214.65" stroke="#AAAAAA"/>
<path d="M-401.248 -19.2484C-334.183 -2.18731 -292.12 39.8759 -275.059 106.941C-257.998 174.007 -215.934 216.07 -148.869 233.131C-81.8034 250.192 -39.7402 292.255 -22.6791 359.321C-5.6181 426.386 36.4451 468.45 103.511 485.511C170.576 502.572 212.639 544.635 229.7 611.7C246.761 678.766 288.825 720.829 355.89 737.89C422.956 754.951 465.019 797.014 482.08 864.08C499.141 931.145 541.204 973.208 608.27 990.27C675.335 1007.33 717.398 1049.39 734.459 1116.46C751.52 1183.52 793.584 1225.59 860.649 1242.65" stroke="#AAAAAA"/>
<path d="M-425.248 8.75165C-358.183 25.8127 -316.12 67.8759 -299.059 134.941C-281.998 202.007 -239.934 244.07 -172.869 261.131C-105.803 278.192 -63.7402 320.255 -46.6791 387.321C-29.6181 454.386 12.4451 496.45 79.5106 513.511C146.576 530.572 188.639 572.635 205.7 639.7C222.761 706.766 264.825 748.829 331.89 765.89C398.956 782.951 441.019 825.014 458.08 892.08C475.141 959.145 517.204 1001.21 584.27 1018.27C651.335 1035.33 693.398 1077.39 710.459 1144.46C727.52 1211.52 769.584 1253.59 836.649 1270.65" stroke="#AAAAAA"/>
<path d="M-449.248 36.7516C-382.183 53.8127 -340.12 95.8759 -323.059 162.941C-305.998 230.007 -263.934 272.07 -196.869 289.131C-129.803 306.192 -87.7402 348.255 -70.6791 415.321C-53.6181 482.386 -11.5549 524.45 55.5106 541.511C122.576 558.572 164.639 600.635 181.7 667.7C198.761 734.766 240.825 776.829 307.89 793.89C374.956 810.951 417.019 853.014 434.08 920.08C451.141 987.145 493.204 1029.21 560.27 1046.27C627.335 1063.33 669.398 1105.39 686.459 1172.46C703.52 1239.52 745.584 1281.59 812.649 1298.65" stroke="#AAAAAA"/>
<path d="M-473.248 64.7516C-406.183 81.8127 -364.12 123.876 -347.059 190.941C-329.998 258.007 -287.934 300.07 -220.869 317.131C-153.803 334.192 -111.74 376.255 -94.6791 443.321C-77.6181 510.386 -35.5549 552.45 31.5106 569.511C98.576 586.572 140.639 628.635 157.7 695.7C174.761 762.766 216.825 804.829 283.89 821.89C350.956 838.951 393.019 881.014 410.08 948.08C427.141 1015.15 469.204 1057.21 536.27 1074.27C603.335 1091.33 645.398 1133.39 662.459 1200.46C679.52 1267.52 721.584 1309.59 788.649 1326.65" stroke="#AAAAAA"/>
<path d="M-497.248 92.7516C-430.183 109.813 -388.12 151.876 -371.059 218.941C-353.998 286.007 -311.934 328.07 -244.869 345.131C-177.803 362.192 -135.74 404.255 -118.679 471.321C-101.618 538.386 -59.5549 580.45 7.51059 597.511C74.576 614.572 116.639 656.635 133.7 723.7C150.761 790.766 192.825 832.829 259.89 849.89C326.956 866.951 369.019 909.014 386.08 976.08C403.141 1043.15 445.204 1085.21 512.27 1102.27C579.335 1119.33 621.398 1161.39 638.459 1228.46C655.52 1295.52 697.584 1337.59 764.649 1354.65" stroke="#AAAAAA"/>
<path d="M-521.248 120.752C-454.183 137.813 -412.12 179.876 -395.059 246.941C-377.998 314.007 -335.934 356.07 -268.869 373.131C-201.803 390.192 -159.74 432.255 -142.679 499.321C-125.618 566.386 -83.5549 608.45 -16.4894 625.511C50.576 642.572 92.6393 684.635 109.7 751.7C126.761 818.766 168.825 860.829 235.89 877.89C302.956 894.951 345.019 937.014 362.08 1004.08C379.141 1071.15 421.204 1113.21 488.27 1130.27C555.335 1147.33 597.398 1189.39 614.459 1256.46C631.52 1323.52 673.584 1365.59 740.649 1382.65" stroke="#AAAAAA"/>
<path d="M-545.248 148.752C-478.183 165.813 -436.12 207.876 -419.059 274.941C-401.998 342.007 -359.934 384.07 -292.869 401.131C-225.803 418.192 -183.74 460.255 -166.679 527.321C-149.618 594.386 -107.555 636.45 -40.4894 653.511C26.576 670.572 68.6393 712.635 85.7003 779.7C102.761 846.766 144.825 888.829 211.89 905.89C278.956 922.951 321.019 965.014 338.08 1032.08C355.141 1099.15 397.204 1141.21 464.27 1158.27C531.335 1175.33 573.398 1217.39 590.459 1284.46C607.52 1351.52 649.584 1393.59 716.649 1410.65" stroke="#AAAAAA"/>
<path d="M-569.248 176.752C-502.183 193.813 -460.12 235.876 -443.059 302.941C-425.998 370.007 -383.934 412.07 -316.869 429.131C-249.803 446.192 -207.74 488.255 -190.679 555.321C-173.618 622.386 -131.555 664.45 -64.4894 681.511C2.57603 698.572 44.6393 740.635 61.7003 807.7C78.7614 874.766 120.825 916.829 187.89 933.89C254.956 950.951 297.019 993.014 314.08 1060.08C331.141 1127.15 373.204 1169.21 440.27 1186.27C507.335 1203.33 549.398 1245.39 566.459 1312.46C583.52 1379.52 625.584 1421.59 692.649 1438.65" stroke="#AAAAAA"/>
<path d="M-593.248 204.752C-526.183 221.813 -484.12 263.876 -467.059 330.941C-449.998 398.007 -407.934 440.07 -340.869 457.131C-273.803 474.192 -231.74 516.255 -214.679 583.321C-197.618 650.386 -155.555 692.45 -88.4894 709.511C-21.424 726.572 20.6393 768.635 37.7003 835.7C54.7614 902.766 96.8246 944.829 163.89 961.89C230.956 978.951 273.019 1021.01 290.08 1088.08C307.141 1155.15 349.204 1197.21 416.27 1214.27C483.335 1231.33 525.398 1273.39 542.459 1340.46C559.52 1407.52 601.584 1449.59 668.649 1466.65" stroke="#AAAAAA"/>
</svg>
